<svg version="1" xmlns="http://www.w3.org/2000/svg" width="897" height="664" viewBox="0 0 8970 6640"><path d="M0 3320V0h8970v6640H0V3320z" fill="#414342"/><g fill="#fff"><path d="M0 3320V0h8970v6640H0V3320zm2380 2524c338-69 690-281 1008-608 63-64 118-116 122-116 5 0 25 14 43 30 38 33 67 39 67 15 0-17-34-55-65-72-22-13-28-3 93-153 46-57 115-149 153-206 42-63 81-110 99-119 16-8 34-24 40-34 8-16 5-21-22-30-17-6-60-11-96-11-60 0-67 2-105 36-45 41-274 155-417 207-260 96-450 139-620 140-90 1-111-2-146-21-57-29-84-76-84-142 0-96 63-191 237-361 218-212 511-413 815-559 256-122 448-180 609-183 116-2 149 10 149 57 0 17-9 45-19 63a829 829 0 0 1-213 176c-73 46-111 57-123 37-13-21-59-8-163 46-184 96-447 276-473 325-14 27 29 69 70 69 68 0 466-225 688-389 101-75 214-180 255-235 22-31 28-50 28-89 0-45-4-54-39-87-48-46-100-60-224-60-123 0-245 22-388 70a2737 2737 0 0 0-1044 661c-279 286-344 490-200 617 72 64 161 81 325 63 220-24 529-113 780-224 69-30 127-54 129-52 4 5-120 170-207 275l-69 82-99 4c-333 10-833 168-1105 349-152 102-228 199-229 293 0 74 50 130 135 151 50 13 206 5 305-15zm3730-529c41-21 39-39-2-29-49 12-77 8-100-12-68-62-69-284-2-484l35-105 92-60c328-215 675-483 833-643 109-110 129-169 76-222-39-39-102-47-205-27-248 49-524 276-740 608-54 82-143 253-165 317-8 23-33 46-99 88-236 152-520 306-592 320-28 6-31 4-31-19 0-101 463-506 600-524 36-5 42-3 47 16 4 16 13 21 39 21 64 0 54-64-16-102-76-42-203-7-363 99-88 59-279 247-332 327-95 146-99 256-9 256 72 0 320-119 582-278 72-44 132-77 132-74l-16 82c-19 88-21 248-5 306 33 123 147 188 241 139zm-1184-210c53-16 93-39 83-50-4-3-30 1-58 11-59 19-110 13-136-16-33-37-4-131 97-308 40-69 46-75 157-144 605-376 1006-686 1100-849 40-69 40-102 0-141-30-30-32-31-103-25-164 12-363 129-622 365-327 297-711 836-731 1024-12 122 72 175 213 133zm-712-60c104-42 241-137 340-236 68-68 95-89 116-89 36 0 42-8 26-39-7-14-17-44-20-66-15-83-77-113-196-94-72 11-72 11-101-17-27-26-30-27-71-15a827 827 0 0 0-298 210c-155 156-195 252-132 321 40 46 92 61 187 56 57-3 100-12 149-31zm-309-1606c61-15 128-76 161-146 83-177 87-551 7-720-52-111-159-160-257-118-18 8-19 4-12-76 4-46 9-108 13-136l6-53h277v-120h-195c-107 0-195 1-195 3l-34 290-32 289 23 9c62 23 69 22 93-15 25-42 66-66 110-66 43 0 84 44 104 110 34 115 30 377-9 507-9 30-30 67-49 88-63 66-145 39-176-59-13-39-10-205 4-238 6-13 1-18-26-23-85-15-90-14-106 35-8 25-15 86-15 135-2 119 20 183 83 245 63 64 133 82 225 59zm731-13c146-68 194-278 116-506-41-118-82-214-131-299-22-40-41-78-41-85s40-106 90-221c49-114 92-216 95-227 6-17-6-18-260-18s-266 1-260 18c3 11 46 113 95 227 50 115 90 215 90 222s-13 35-30 61c-45 74-105 207-141 312-80 238-33 447 115 516 40 19 68 24 131 24s91-5 131-24zm607-10c105-61 160-199 173-438 10-181-24-370-80-447-55-74-144-108-217-82-18 6-34 10-35 8-4-3 15-214 22-244 4-22 7-23 139-23h135v-120h-386l-28 253-33 293-5 41 48 12c43 11 49 10 58-6 5-10 24-33 42-50 34-35 85-44 125-23 27 15 55 75 69 148 16 82 8 366-13 440-18 64-53 117-85 131-119 55-190-92-146-306 6-31 6-31-51-43-45-9-59-9-65 0-19 31-32 136-28 213 7 107 37 171 105 230 61 53 179 59 256 13zm-667-1581c38-91 71-165 74-165s20 55 39 123l40 134c4 7 44-31 100-94 88-98 96-104 108-87 8 11 44 69 80 129 76 126 72 120 77 114 3-2 37-126 76-274l75-283c6-18 3-15-163 105-79 58-145 103-146 101l-96-160c-52-86-97-155-101-153-3 3-21 41-40 85-18 44-36 77-39 73-4-5-40-124-80-267-49-170-76-252-80-240-4 11-38 127-75 259-38 132-71 243-75 248-3 4-21-29-39-73-19-44-36-82-40-84-3-3-44 59-91 137-47 77-92 149-100 158-14 17-24 11-150-82-74-55-142-104-151-109-11-6 3 63 58 273 41 155 76 283 78 286 7 6 3 12 85-127 40-67 76-125 81-127 4-3 49 42 101 99 55 62 95 100 99 93l40-134c19-68 36-123 39-123s36 74 74 165 70 165 71 165 33-74 71-165zm-819-501c10-42 9-46-14-61-29-19-39-11-48 38-6 31-3 39 16 53 13 9 26 16 30 16 3 0 10-21 16-46zm1542 30c19-14 22-22 16-53-9-48-18-56-47-37-24 15-24 19-15 61 6 25 13 45 16 45 4 0 17-7 30-16zm-1011-106l21-32-21-29-21-29-18 23c-23 30-23 44-1 74 9 14 18 25 19 25l21-32zm492-30c0-7-9-24-19-37l-18-23-21 29-21 29 21 32 20 32 19-24c10-13 19-30 19-38zm-236-359l26-45-28-27c-35-34-42-34-74 1l-26 27 30 53c17 29 34 50 38 45 4-4 19-29 34-54z"/><path d="M2045 5816c-72-31-72-128 2-221 38-49 165-144 266-199 167-91 455-194 687-246 107-24 307-47 317-36 11 11-211 225-337 326-307 245-626 391-848 390-32-1-71-7-87-14zM6103 4555c14-37 102-176 166-263 83-113 286-314 378-375 128-85 266-130 327-107 34 13 33 28-6 86-67 99-514 450-843 660-29 19-29 19-22-1zM5050 4535c150-200 483-526 707-692 114-84 234-144 291-146 44-2 47 0 50 25 8 72-316 340-803 664-233 155-265 175-245 149zM4010 5031c-15-4-29-18-34-33-43-123 361-428 568-428h39l-20 23c-31 33-37 64-19 91 14 22 13 26-19 64-40 46-180 152-280 210-103 61-185 86-235 73zM4440 3303c-51-26-80-89-80-174 0-101 52-284 117-412l26-51 34 68c96 191 137 404 95 498-24 55-52 76-113 83-32 5-54 1-79-12zM4483 2370c-40-89-62-145-65-159-2-12 15-15 90-17 108-3 105-15 37 129l-43 92-19-45zM3930 1853c0-5-18-74-39-155s-34-145-27-141c14 9 158 114 170 124 4 4-15 46-43 93-49 81-61 96-61 79zM4444 1723c-32-75-57-144-57-152 2-20 111-402 117-408 2-3 7 4 10 14 40 135 108 381 109 393 1 14-111 290-118 290-2 0-29-62-61-137zM5020 1775c-29-48-48-90-44-94 12-11 156-115 171-124 9-6-61 290-72 301-2 2-26-36-55-83zM4183 1755l-71-78 72-118c39-66 74-119 77-119 8 0 59 127 59 148 0 9-15 68-33 131l-33 113-71-77zM4722 1714c-18-66-32-125-32-131 0-18 52-143 59-143 3 0 38 53 77 119l72 119-72 77-71 77-33-118z"/></g></svg>