<?xml version="1.0" encoding="UTF-8" standalone="no"?>
<svg
   xmlns:dc="http://purl.org/dc/elements/1.1/"
   xmlns:cc="http://creativecommons.org/ns#"
   xmlns:rdf="http://www.w3.org/1999/02/22-rdf-syntax-ns#"
   xmlns:svg="http://www.w3.org/2000/svg"
   xmlns="http://www.w3.org/2000/svg"
   xmlns:sodipodi="http://sodipodi.sourceforge.net/DTD/sodipodi-0.dtd"
   xmlns:inkscape="http://www.inkscape.org/namespaces/inkscape"
   version="1.0"
   width="897px"
   height="664px"
   viewBox="0 0 8970 6640"
   preserveAspectRatio="xMidYMid meet"
   id="svg2"
   inkscape:version="0.91 r13725"
   sodipodi:docname="barplace.svg">
  <metadata
     id="metadata32">
    <rdf:RDF>
      <cc:Work
         rdf:about="">
        <dc:format>image/svg+xml</dc:format>
        <dc:type
           rdf:resource="http://purl.org/dc/dcmitype/StillImage" />
      </cc:Work>
    </rdf:RDF>
  </metadata>
  <defs
     id="defs30" />
  <sodipodi:namedview
     pagecolor="#ffffff"
     bordercolor="#666666"
     borderopacity="1"
     objecttolerance="10"
     gridtolerance="10"
     guidetolerance="10"
     inkscape:pageopacity="0"
     inkscape:pageshadow="2"
     inkscape:window-width="977"
     inkscape:window-height="661"
     id="namedview28"
     showgrid="false"
     inkscape:zoom="0.34559643"
     inkscape:cx="911.60117"
     inkscape:cy="26.181602"
     inkscape:window-x="0"
     inkscape:window-y="0"
     inkscape:window-maximized="0"
     inkscape:current-layer="svg2" />
  <g
     id="layer101"
     fill="#464847"
     stroke="none">
    <path
       d="M0 3320 l0 -3320 4485 0 4485 0 0 3320 0 3320 -4485 0 -4485 0 0 -3320z"
       id="path5" />
  </g>
  <g
     id="layer102"
     style="fill:#ffffff;stroke:none"
     transform="matrix(1.1573883,0,0,1.1955993,-859.34001,-440.36068)">
    <path
       d="M 0,3320 0,0 l 4485,0 4485,0 0,3320 0,3320 -4485,0 -4485,0 0,-3320 z m 3785,2460 c 25,-24 33,-50 16,-50 -6,0 -22,11 -37,25 -36,33 -86,34 -119,0 -47,-47 -36,-55 75,-55 94,0 100,-1 100,-20 0,-62 -72,-118 -135,-106 -103,20 -134,143 -53,211 28,23 39,27 80,23 32,-4 57,-13 73,-28 z m 809,-11 c 36,-41 18,-51 -25,-15 -40,34 -91,35 -124,1 -48,-47 -36,-55 79,-55 l 104,0 -9,-37 c -16,-73 -95,-110 -163,-78 -87,41 -88,179 -2,216 11,5 41,7 66,5 35,-3 51,-11 74,-37 z m 421,-52 c 0,-77 -2,-88 -24,-111 -32,-34 -83,-43 -116,-22 -14,9 -25,12 -25,6 0,-5 -7,-10 -15,-10 -12,0 -15,19 -15,110 0,91 3,110 15,110 12,0 15,-15 15,-78 0,-88 10,-109 55,-118 22,-4 38,0 55,14 22,18 25,29 29,107 2,59 7,85 15,82 7,-2 11,-34 11,-90 z m -848,-26 c 24,-57 41,-106 39,-109 -14,-14 -35,15 -65,92 -19,48 -38,83 -41,79 -4,-5 -22,-45 -40,-90 -23,-61 -37,-83 -50,-83 -15,0 -12,15 28,110 60,144 69,144 129,1 z m 1113,9 0,-100 25,0 c 14,0 25,-4 25,-10 0,-5 -11,-10 -25,-10 -22,0 -25,-4 -25,-40 0,-33 -3,-40 -19,-40 -15,0 -19,6 -16,27 4,37 -4,53 -26,53 -10,0 -19,5 -19,10 0,6 9,10 19,10 24,0 30,26 28,123 -2,67 0,77 16,77 15,0 17,-11 17,-100 z m -2017,19 c 41,-50 5,-129 -59,-129 -41,0 -72,26 -80,67 -5,27 -1,37 25,64 27,26 37,30 64,25 18,-3 40,-16 50,-27 z m 2559,1 c 25,-26 29,-36 24,-63 -12,-64 -86,-89 -133,-45 -38,36 -27,109 20,128 38,15 58,11 89,-20 z m 1123,-654 c 103,-27 195,-88 246,-162 l 30,-44 -46,0 c -40,0 -50,5 -76,35 -17,19 -62,50 -101,70 -64,31 -79,35 -152,35 -85,0 -147,-20 -216,-71 -47,-35 -98,-117 -115,-186 -36,-143 41,-293 185,-362 47,-22 69,-26 145,-26 77,0 99,4 151,28 34,16 79,46 100,68 31,32 45,39 76,39 21,0 38,-4 38,-8 0,-20 -62,-91 -109,-126 -255,-187 -618,-48 -671,256 -49,282 231,530 515,454 z m -5572,-6 c 143,-21 217,-94 217,-215 0,-74 -18,-114 -73,-160 l -46,-38 30,-35 c 37,-42 49,-72 49,-120 -1,-80 -69,-169 -147,-192 -21,-6 -102,-14 -180,-17 l -143,-6 0,397 0,396 113,0 c 61,0 143,-5 180,-10 z m 517,-120 56,-125 191,-3 191,-2 58,130 58,130 44,0 c 37,0 43,-3 38,-16 -22,-56 -331,-751 -339,-762 -6,-8 -26,-12 -51,-10 l -40,3 -173,384 c -95,211 -173,388 -173,393 0,5 19,8 42,6 l 42,-3 56,-125 z m 930,-226 0,-356 128,4 c 113,3 132,6 170,28 70,40 101,109 81,183 -23,87 -86,128 -211,136 l -87,6 136,175 135,175 49,3 c 27,2 49,0 49,-3 0,-3 -49,-69 -110,-145 -60,-77 -110,-142 -110,-145 0,-3 11,-5 25,-5 64,0 149,-61 187,-133 30,-60 27,-153 -8,-218 -56,-102 -117,-126 -342,-135 l -172,-7 0,396 0,397 40,0 40,0 0,-356 z m 1430,196 0,-160 118,0 c 139,0 206,-16 259,-63 94,-83 98,-244 7,-329 -60,-56 -109,-68 -294,-75 l -170,-6 0,396 0,397 40,0 40,0 0,-160 z m 1090,125 c 0,-40 19,-36 -180,-35 -69,0 -131,-3 -137,-8 -10,-6 -13,-93 -15,-358 l -3,-349 -34,-3 c -20,-2 -37,2 -42,10 -9,15 -12,737 -3,762 5,14 30,16 210,16 l 204,0 0,-35 z m 271,-95 56,-125 192,0 192,0 52,115 c 29,63 56,121 60,128 5,6 26,12 49,12 34,0 39,-3 34,-17 -4,-10 -82,-188 -174,-396 l -166,-378 -45,3 -44,3 -174,385 c -95,212 -173,389 -173,393 0,5 19,7 42,5 l 43,-3 56,-125 z m 2289,95 c 0,-29 -4,-35 -22,-35 -13,-1 -93,-2 -178,-3 l -155,-2 -3,-142 -3,-143 176,0 175,0 0,-35 0,-35 -175,0 -175,0 0,-140 0,-140 180,0 180,0 0,-40 0,-40 -220,0 -220,0 0,395 0,395 220,0 220,0 0,-35 z M 3878,4543 c 0,-33 10,-66 35,-112 37,-72 315,-521 445,-722 l 82,-125 118,-13 c 223,-23 385,-68 577,-161 150,-72 254,-149 370,-272 173,-183 264,-392 265,-603 0,-232 -117,-389 -336,-450 -79,-22 -350,-31 -469,-16 -94,12 -263,49 -280,60 -5,4 -38,-8 -73,-26 -61,-31 -62,-32 -35,-39 278,-61 625,-321 731,-546 105,-223 43,-464 -152,-590 -217,-140 -690,-144 -1097,-8 -433,144 -684,401 -683,700 0,67 4,93 21,125 44,84 122,126 248,133 l 79,5 -19,-29 c -16,-24 -20,-45 -19,-114 4,-308 218,-589 578,-761 365,-174 714,-125 782,109 84,287 -299,779 -701,902 -76,23 -219,38 -228,24 -3,-5 20,-43 50,-84 30,-41 131,-181 224,-310 93,-129 196,-273 230,-318 70,-97 70,-97 -31,-151 -76,-41 -128,-59 -207,-71 -92,-15 -98,-12 -99,57 -1,108 -79,254 -397,745 -364,562 -497,822 -497,972 0,71 47,126 106,126 26,0 31,-3 27,-18 -2,-11 2,-35 10,-54 20,-48 168,-285 360,-577 l 161,-244 87,6 c 54,3 105,13 131,25 44,19 98,72 98,96 0,7 -28,26 -62,42 -77,36 -196,112 -261,168 -220,185 -313,516 -187,660 l 30,34 -42,24 c -142,79 -264,112 -413,113 -114,0 -123,-1 -187,-32 -160,-76 -201,-264 -113,-528 49,-147 166,-328 242,-374 23,-14 43,-29 43,-32 0,-3 -24,-9 -52,-13 -202,-24 -368,22 -479,134 -195,195 -184,513 25,725 57,59 89,81 166,118 110,52 192,73 352,87 396,34 790,-110 1071,-393 55,-55 94,-89 87,-77 -24,45 -150,251 -292,476 -277,440 -467,783 -518,934 -26,76 -35,153 -26,204 8,44 67,106 100,106 20,0 23,-5 24,-47 z"
       id="path8"
       inkscape:connector-curvature="0" />
    <path
       d="m 3620,5671 c 0,-41 54,-76 101,-66 27,6 69,46 69,66 0,5 -38,9 -85,9 -47,0 -85,-4 -85,-9 z"
       id="path10"
       inkscape:connector-curvature="0" />
    <path
       d="m 4420,5666 c 0,-20 57,-66 81,-66 38,0 88,38 89,68 0,9 -23,12 -85,12 -67,0 -85,-3 -85,-14 z"
       id="path12"
       inkscape:connector-curvature="0" />
    <path
       d="m 1166,4993 c -3,-4 -6,-74 -6,-156 l 0,-150 118,5 c 132,6 171,19 202,71 33,53 35,91 9,144 -35,68 -73,85 -208,89 -60,1 -112,0 -115,-3 z"
       id="path14"
       inkscape:connector-curvature="0" />
    <path
       d="m 1160,4485 0,-138 98,5 c 54,3 113,12 133,21 65,27 94,104 62,167 -29,56 -70,73 -189,78 l -104,5 0,-138 z"
       id="path16"
       inkscape:connector-curvature="0" />
    <path
       d="m 1990,4724 c 0,-14 144,-334 150,-334 5,0 115,244 145,323 7,16 -4,17 -144,17 -83,0 -151,-3 -151,-6 z"
       id="path18"
       inkscape:connector-curvature="0" />
    <path
       d="m 4250,4521 0,-161 118,0 c 102,0 124,3 162,23 65,32 93,78 88,145 -5,60 -28,97 -79,127 -28,17 -56,21 -161,24 l -128,3 0,-161 z"
       id="path20"
       inkscape:connector-curvature="0" />
    <path
       d="m 5710,4725 c 0,-2 25,-62 56,-132 31,-70 65,-148 76,-173 l 19,-45 69,158 c 38,86 72,166 75,177 6,19 2,20 -144,20 -83,0 -151,-2 -151,-5 z"
       id="path22"
       inkscape:connector-curvature="0" />
    <path
       d="m 4562,3399 c 47,-68 143,-209 213,-314 71,-104 169,-246 218,-314 88,-122 89,-124 78,-160 -25,-84 -134,-171 -242,-192 l -56,-11 -12,-77 c -20,-125 -25,-113 54,-139 172,-56 358,-53 483,9 74,36 115,85 139,168 84,289 -283,857 -687,1065 -91,46 -158,70 -229,81 l -43,7 84,-123 z"
       id="path24"
       inkscape:connector-curvature="0" />
    <path
       d="m 4136,2869 c 29,-128 129,-302 228,-398 l 45,-44 -15,64 c -28,123 -146,323 -242,413 l -31,29 15,-64 z"
       id="path26"
       inkscape:connector-curvature="0" />
  </g>
</svg>
