<!DOCTYPE svg PUBLIC "-//W3C//DTD SVG 20010904//EN" "http://www.w3.org/TR/2001/REC-SVG-20010904/DTD/svg10.dtd">
<svg version="1.0" xmlns="http://www.w3.org/2000/svg" width="897px" height="664px" viewBox="0 0 8970 6640" preserveAspectRatio="xMidYMid meet">
<g id="layer101" fill="#454545" stroke="none">
 <path d="M20 20 L20 6620 8950 6620 8950 20z" fill="#454545"/>
 </g>
<g id="layer102" fill="#ffffff" stroke="none">
 <path d="M0 3320 l0 -3320 4485 0 4485 0 0 3320 0 3320 -4485 0 -4485 0 0 -3320z m1640 541 c0 -85 -4 -131 -12 -139 -8 -8 -54 -12 -140 -12 l-128 0 0 -130 0 -130 271 0 271 0 -7 270 -7 270 146 0 146 0 0 -275 0 -275 -140 0 -140 0 0 -135 0 -135 140 0 140 0 0 -135 0 -134 -137 -3 -138 -3 -3 -132 -3 -133 -274 0 -275 0 0 135 0 135 -130 0 -130 0 0 -135 0 -135 -140 0 -140 0 0 270 0 270 135 0 135 0 0 135 0 135 -135 0 -135 0 0 275 0 275 140 0 140 0 0 -135 0 -135 130 0 130 0 0 134 c0 79 4 136 10 138 5 2 70 2 145 0 l135 -3 0 -128z m2364 -145 c69 -21 111 -58 146 -130 74 -149 40 -354 -73 -440 -84 -64 -201 -72 -297 -20 -92 50 -141 146 -143 279 -2 164 67 277 193 316 41 12 124 10 174 -5z m746 -8 l45 -14 3 -432 2 -432 -80 0 -80 0 0 138 0 137 -88 0 c-103 0 -149 20 -206 86 -51 61 -71 126 -71 235 1 83 4 98 34 158 36 74 79 110 159 133 57 16 216 11 282 -9z m638 -3 l52 -16 -2 -292 -3 -292 -77 -3 c-43 -2 -79 -2 -80 0 -1 2 -5 113 -8 248 l-5 245 -60 3 c-50 2 -64 -1 -83 -18 -21 -20 -22 -26 -22 -239 0 -176 -3 -221 -14 -230 -9 -7 -41 -11 -83 -9 l-68 3 0 240 c0 230 1 242 23 282 42 80 110 105 267 99 61 -3 134 -12 163 -21z m845 2 c54 -23 112 -82 138 -140 20 -43 23 -69 24 -157 0 -89 -4 -113 -23 -155 -26 -55 -72 -109 -115 -131 -60 -32 -171 -36 -239 -9 -17 7 -18 -4 -18 -140 l0 -146 -37 3 -38 3 -3 422 -2 422 22 12 c71 39 217 46 291 16z m612 12 c33 -6 72 -17 87 -25 l28 -15 0 -194 c0 -273 -13 -320 -103 -367 -54 -28 -177 -31 -254 -5 -55 19 -69 36 -50 62 11 13 18 14 42 5 105 -40 203 -34 253 16 28 28 32 38 32 87 l0 54 -82 6 c-198 15 -288 78 -288 202 0 90 45 146 137 171 60 16 123 17 198 3z m-3965 -296 l1 -298 44 150 c25 83 64 217 87 298 l42 148 55 -3 c36 -2 56 -8 57 -15 1 -7 2 -14 3 -15 2 -2 4 -13 7 -25 6 -32 134 -475 142 -493 4 -8 9 111 12 265 l5 280 83 3 82 3 0 -411 0 -411 -117 3 -117 3 -38 130 c-20 72 -54 196 -75 278 -20 81 -40 147 -43 147 -3 0 -38 -116 -79 -258 -40 -141 -77 -267 -82 -280 -8 -22 -12 -23 -121 -20 l-113 3 -3 395 c-1 217 0 401 3 407 3 9 30 13 85 13 l80 0 0 -297z m2850 -148 l0 -445 -80 0 -80 0 0 445 0 445 80 0 80 0 0 -445z m1470 170 l5 -269 25 -7 c51 -14 164 -10 200 9 64 32 70 57 70 315 l0 227 35 0 35 0 0 -242 c0 -233 -1 -245 -23 -283 -46 -82 -145 -116 -279 -97 -42 6 -92 18 -112 26 l-36 15 0 291 0 291 38 -3 37 -3 5 -270z m620 122 l5 -147 150 150 c140 140 152 150 187 150 21 0 38 -3 38 -7 0 -4 -69 -77 -152 -161 l-153 -152 146 -145 c80 -80 143 -147 141 -150 -3 -3 -22 -5 -41 -5 -33 0 -48 12 -176 140 l-140 140 -5 -272 -5 -273 -37 -3 -38 -3 0 446 0 446 38 -3 37 -3 5 -148z"/>
 <path d="M1360 3040 l0 -130 135 0 135 0 0 130 0 130 -135 0 -135 0 0 -130z"/>
 <path d="M3857 3589 c-49 -28 -74 -182 -47 -281 12 -43 61 -88 96 -88 77 0 117 64 118 185 0 93 -15 147 -51 175 -28 22 -86 26 -116 9z"/>
 <path d="M4530 3603 c-28 -10 -69 -56 -79 -87 -26 -86 -19 -186 17 -236 29 -39 85 -63 132 -55 l40 7 0 183 c0 181 0 183 -22 189 -27 7 -67 7 -88 -1z"/>
 <path d="M6030 3657 l-30 -8 0 -234 0 -234 38 -10 c52 -15 126 -14 165 3 44 18 94 77 108 128 16 56 16 172 -1 223 -16 52 -54 101 -91 121 -34 17 -142 24 -189 11z"/>
 <path d="M6676 3661 c-60 -13 -96 -58 -96 -122 0 -44 4 -55 30 -79 33 -30 118 -56 213 -64 l57 -5 0 135 c0 74 -3 134 -7 134 -5 0 -42 2 -83 5 -41 2 -93 0 -114 -4z"/>
 </g>

</svg>