<?xml version="1.0" encoding="UTF-8"?>
<!DOCTYPE svg PUBLIC "-//W3C//DTD SVG 1.1//EN" "http://www.w3.org/Graphics/SVG/1.1/DTD/svg11.dtd">
<!-- Creator: CorelDRAW 2018 (64-Bit) -->
<svg xmlns="http://www.w3.org/2000/svg" xml:space="preserve" width="200mm" height="200mm" version="1.1" style="shape-rendering:geometricPrecision; text-rendering:geometricPrecision; image-rendering:optimizeQuality; fill-rule:evenodd; clip-rule:evenodd"
viewBox="0 0 20000 20000"
 xmlns:xlink="http://www.w3.org/1999/xlink">
 <defs>
  <style type="text/css">
   <![CDATA[
    .fil0 {fill:#454545;fill-rule:nonzero}
   ]]>
  </style>
 </defs>
 <g id="РЁР_x00b0_СЂ_x0020_1">
  <metadata id="CorelCorpID_0Corel-Layer"/>
  <g id="_2049374641440">
   <path class="fil0" d="M10986.41 9106.38l-915.49 -1.39 0 727.4 1004.1 0c13.56,0 26.89,-2.99 38.97,-9.14 31.8,-16.17 85.58,-48.15 122.77,-133.08 27.75,-72.19 13.24,-435.67 6.79,-445.17 -35.5,-140.01 -257.14,-138.62 -257.14,-138.62z"/>
   <path class="fil0" d="M10000.01 2500c-4142.14,0 -7500.01,3357.87 -7500.01,7500 0,4142.14 3357.87,7500 7500.01,7500 4142.13,0 7499.99,-3357.86 7499.99,-7500 0,-4142.13 -3357.86,-7500 -7499.99,-7500zm-1814.2 8981.4l0 0 -1029.69 0 0 -2120.27 -769.5 2120.27 -1068.43 0 -761.63 -2114.73 0 2114.73 -1032.02 0 0 -2950.65 1561.13 0 769.5 2125.79 780.57 -2125.79 1550.07 0 0 2950.65zm3137.47 0l0 0 -433.45 -1100.31 -807.53 0 0 1100.31 -1116.29 0 0 -2950.65c0,0 969.16,-1.46 2238.52,0 1207.74,-56.14 1206.48,734.05 1206.48,734.05 0,0 18.95,0 0,504.7 -65.31,469.08 -470.2,546.27 -470.2,546.27l605.63 1165.63 -1223.16 0zm2640.57 24.78l0 0c-848.92,-50.93 -922.33,-563.3 -897.57,-1501.54 24.76,-938.24 50.15,-1382.07 922.97,-1500.53 1872.56,-82.03 2595.42,79.43 2595.42,79.43l0 476.63 -2082.46 12.3c0,0 -166.78,3.29 -230.21,221.61 1.83,62.25 -10.62,1365.62 -4.59,1437.86 53.32,206.6 216.36,217.49 216.36,217.49l999.11 15.44 0 -737.03 -605.55 0.66 -1.46 -498.89 1731.17 6.59c0,0 0,1150.96 0,1708.08 -519.97,111.42 -1819.9,148.56 -2643.19,61.9z"/>
  </g>
 </g>
</svg>
