<?xml version="1.0" encoding="UTF-8"?>
<!DOCTYPE svg PUBLIC "-//W3C//DTD SVG 1.1//EN" "http://www.w3.org/Graphics/SVG/1.1/DTD/svg11.dtd">
<!-- Creator: CorelDRAW 2018 (64-Bit) -->
<svg xmlns="http://www.w3.org/2000/svg" xml:space="preserve" width="200mm" height="200mm" version="1.1" style="shape-rendering:geometricPrecision; text-rendering:geometricPrecision; image-rendering:optimizeQuality; fill-rule:evenodd; clip-rule:evenodd"
viewBox="0 0 20000 20000"
 xmlns:xlink="http://www.w3.org/1999/xlink">
 <defs>
  <style type="text/css">
   <![CDATA[
    .fil0 {fill:#454545;fill-rule:nonzero}
   ]]>
  </style>
 </defs>
 <g id="Слой_x0020_1">
  <metadata id="CorelCorpID_0Corel-Layer"/>
  <g id="_2049382502096">
   <path class="fil0" d="M12613.62 9304.77l-1090.93 0c-25.26,0 -45.7,20.42 -45.7,45.68 0,25.26 20.44,45.7 45.7,45.7l1090.93 0c25.26,0 45.7,-20.44 45.7,-45.7 0,-25.26 -20.44,-45.68 -45.7,-45.68z"/>
   <path class="fil0" d="M2591.41 10016.81c0,-342.21 278.44,-620.66 620.67,-620.66 135.15,0 263.62,42.66 371.54,123.42 20.25,15.18 48.87,10.99 63.97,-9.23 15.1,-20.17 11,-48.82 -9.22,-63.95 -123.83,-92.64 -271.24,-141.62 -426.29,-141.62 -392.63,0 -712.07,319.41 -712.07,712.04 0,145.03 43.35,284.65 125.4,403.66 8.86,12.86 23.13,19.78 37.66,19.78 8.93,0 17.96,-2.64 25.88,-8.08 20.78,-14.33 26.01,-42.75 11.7,-63.55 -71.47,-103.7 -109.24,-225.35 -109.24,-351.81z"/>
   <path class="fil0" d="M3710 9571.6c-19.91,15.53 -23.47,44.22 -7.97,64.13 85.54,109.81 130.74,241.6 130.74,381.08 0,342.26 -278.44,620.71 -620.69,620.71 -143.84,0 -284.09,-50.38 -394.86,-141.81 -19.48,-16.02 -48.26,-13.3 -64.35,6.15 -16.04,19.46 -13.3,48.29 6.16,64.35 127.13,104.91 288.05,162.7 453.05,162.7 392.65,0 712.09,-319.46 712.09,-712.1 0,-160.01 -51.88,-311.2 -150.03,-437.21 -15.53,-19.95 -44.29,-23.44 -64.14,-8z"/>
   <path class="fil0" d="M13038.7 10016.81c0,-342.21 278.44,-620.66 620.66,-620.66 135.17,0 263.63,42.66 371.49,123.42 20.25,15.18 48.91,10.93 63.98,-9.18 15.13,-20.22 10.99,-48.87 -9.18,-64 -123.84,-92.64 -271.23,-141.62 -426.29,-141.62 -392.64,0 -712.05,319.41 -712.05,712.04 0,145.07 43.32,284.7 125.34,403.66 8.85,12.86 23.12,19.78 37.67,19.78 8.92,0 17.97,-2.64 25.87,-8.08 20.81,-14.33 26.03,-42.75 11.7,-63.55 -71.45,-103.66 -109.19,-225.3 -109.19,-351.81z"/>
   <path class="fil0" d="M14157.26 9571.6c-19.9,15.53 -23.47,44.22 -7.99,64.13 85.55,109.78 130.75,241.54 130.75,381.08 0,342.26 -278.45,620.71 -620.66,620.71 -143.86,0 -284.07,-50.38 -394.87,-141.81 -19.54,-16.06 -48.29,-13.3 -64.35,6.15 -16.06,19.46 -13.3,48.29 6.17,64.35 127.13,104.91 288.04,162.7 453.05,162.7 392.64,0 712.05,-319.46 712.05,-712.1 0,-160.07 -51.9,-311.25 -150.02,-437.21 -15.53,-19.91 -44.23,-23.44 -64.13,-8z"/>
   <path class="fil0" d="M14835.27 10016.81c0,-342.21 278.44,-620.66 620.66,-620.66 135.11,0 263.63,42.66 371.58,123.42 20.2,15.18 48.85,10.99 63.94,-9.23 15.13,-20.17 10.97,-48.82 -9.23,-63.95 -123.84,-92.64 -271.27,-141.62 -426.29,-141.62 -392.64,0 -712.05,319.41 -712.05,712.04 0,145.03 43.37,284.65 125.39,403.66 8.83,12.86 23.11,19.78 37.67,19.78 8.92,0 17.97,-2.64 25.88,-8.08 20.78,-14.33 26,-42.75 11.68,-63.55 -71.43,-103.7 -109.23,-225.35 -109.23,-351.81z"/>
   <path class="fil0" d="M15953.87 9571.6c-19.89,15.53 -23.47,44.22 -7.98,64.13 85.5,109.81 130.69,241.6 130.69,381.08 0,342.26 -278.44,620.71 -620.65,620.71 -143.86,0 -284.07,-50.38 -394.87,-141.81 -19.55,-16.06 -48.29,-13.3 -64.35,6.15 -16.06,19.46 -13.3,48.29 6.15,64.35 127.15,104.91 288.06,162.7 453.07,162.7 392.64,0 712.05,-319.46 712.05,-712.1 0,-160.01 -51.85,-311.25 -149.98,-437.21 -15.53,-19.91 -44.22,-23.44 -64.13,-8z"/>
   <path class="fil0" d="M6812.1 9304.77c-392.62,0 -712.05,319.41 -712.05,712.04 0,392.64 319.43,712.1 712.05,712.1 182.64,0 356.31,-69.08 489,-194.47 18.34,-17.32 19.14,-46.23 1.81,-64.57 -17.34,-18.34 -46.28,-19.14 -64.59,-1.83 -115.64,109.29 -267.03,169.48 -426.22,169.48 -342.24,0 -620.67,-278.45 -620.67,-620.71 0,-342.21 278.43,-620.66 620.67,-620.66 159.58,0 309.96,59.8 425.51,168.81l0 391.57 -575.62 0c-25.24,0 -45.7,20.44 -45.7,45.68 0,25.26 20.46,45.7 45.7,45.7l621.3 0c25.24,0 45.7,-20.44 45.7,-45.7l0 -456.58c0,-12.13 -4.82,-23.74 -13.38,-32.3 -134.48,-134.5 -313.29,-208.56 -503.51,-208.56z"/>
   <path class="fil0" d="M8458.35 9304.77c-392.63,0 -712.07,319.41 -712.07,712.04 0,392.64 319.44,712.1 712.07,712.1 182.62,0 356.3,-69.08 488.96,-194.47 9.15,-8.61 14.33,-20.62 14.33,-33.2l0 -484.43c0,-25.26 -20.44,-45.69 -45.7,-45.69l-608.97 0c-25.24,0 -45.69,20.43 -45.69,45.69 0,25.26 20.45,45.7 45.69,45.7l563.28 0 0 418.66c-113.7,100.97 -259.2,156.35 -411.9,156.35 -342.23,0 -620.67,-278.45 -620.67,-620.71 0,-342.21 278.44,-620.66 620.67,-620.66 165.82,0 321.72,64.57 438.89,181.8 17.85,17.85 46.77,17.85 64.62,0 17.85,-17.86 17.85,-46.77 0,-64.62 -134.45,-134.5 -313.26,-208.56 -503.51,-208.56z"/>
   <path class="fil0" d="M12068.16 9487.54c-25.26,0 -45.7,20.44 -45.7,45.7l0 1149.97c0,25.26 20.44,45.7 45.7,45.7 25.26,0 45.7,-20.44 45.7,-45.7l0 -1149.97c0,-25.26 -20.44,-45.7 -45.7,-45.7z"/>
   <path class="fil0" d="M16628.98 10532.79c25.25,0 45.69,-20.43 45.69,-45.69l0 -1136.65c0,-25.26 -20.44,-45.68 -45.69,-45.68 -25.26,0 -45.7,20.42 -45.7,45.68l0 1136.65c0,25.26 20.44,45.69 45.7,45.69z"/>
   <path class="fil0" d="M17454.33 10618.46l-868.19 0c-25.26,0 -45.7,20.44 -45.7,45.7 0,25.26 20.44,45.7 45.7,45.7l868.19 0c25.26,0 45.68,-20.44 45.68,-45.7 0,-25.26 -20.42,-45.7 -45.68,-45.7z"/>
   <path class="fil0" d="M10855.38 9271.1c-100.75,-0.14 -182.62,81.66 -182.72,182.58 -0.12,100.79 81.6,182.57 182.58,182.74 100.73,0.15 182.59,-81.64 182.72,-182.59 0.13,-100.78 -81.62,-182.59 -182.58,-182.73zm91.55 274.08l0 0c-16.9,0 -33.81,-0.01 -50.71,0.01 -0.73,0 -1,-0.29 -1.3,-0.88 -7.82,-15.92 -15.64,-31.85 -23.51,-47.75 -2.39,-4.86 -5.16,-9.49 -8.66,-13.66 -4.85,-5.76 -11.1,-8.99 -18.5,-9.61 -5.8,-0.48 -11.67,-0.31 -17.5,-0.42 -0.7,-0.03 -1.41,-0.02 -2.21,-0.02 0,24.13 0,48.19 0,72.28 -16.48,0 -32.84,0 -49.27,0 0,-63.68 0,-127.35 0,-191.11 0.22,-0.01 0.36,-0.03 0.52,-0.03 26.39,0.01 52.79,-0.07 79.17,0.07 10.96,0.07 21.84,1.21 32.44,4.21 7.83,2.22 15.13,5.52 21.37,10.87 6.52,5.57 10.6,12.67 12.6,20.92 2.84,11.66 2.88,23.31 -0.54,34.88 -3.06,10.32 -9.47,18.11 -18.47,23.85 -4.51,2.87 -9.37,4.98 -14.44,6.62 -0.29,0.09 -0.56,0.19 -0.99,0.33 0.25,0.13 0.36,0.21 0.49,0.25 8.01,2.15 14.42,6.76 19.77,12.95 5.39,6.23 9.43,13.36 13.07,20.7 9.04,18.18 18.07,36.37 27.1,54.56 0.13,0.27 0.25,0.55 0.42,0.92 -0.33,0.02 -0.59,0.06 -0.85,0.06z"/>
   <path class="fil0" d="M10860.16 9391.63c-4.48,-1.31 -9.08,-1.8 -13.73,-1.83 -6.33,-0.05 -12.67,-0.01 -19,-0.03 -0.92,0 -1.85,0 -2.84,0 0,16.45 0,32.77 0,49.12 0.22,0.01 0.38,0.03 0.52,0.03 7.33,0 14.65,0.05 21.98,-0.03 4.27,-0.04 8.5,-0.56 12.6,-1.83 6.56,-2.02 11.22,-6.04 13.15,-12.77 1.88,-6.49 1.94,-13.05 0.19,-19.58 -1.81,-6.75 -6.14,-11.1 -12.87,-13.08z"/>
   <path class="fil0" d="M4343.02 10683.21c0,25.26 20.46,45.7 45.69,45.7 25.23,0 45.7,-20.44 45.7,-45.7l0 -998.97 -91.39 -116.28 0 1115.25z"/>
   <path class="fil0" d="M5636.23 9306.9c-19.05,-6.2 -39.68,0.94 -51.16,17.27l-574.11 815.58 -585.12 -815.93c-11.58,-16.15 -32.27,-22.9 -51.12,-16.88 -18.89,6.08 -31.7,23.65 -31.7,43.51l0 10.28 210.61 298.11 420.53 586.44c8.61,12.01 23.03,19.55 37.33,19.06 14.79,-0.04 28.65,-7.28 37.17,-19.42l408.04 -579.62 0.04 -0.05 120.01 -170.48 0 1.5 91.4 -128.67 0 -17.15c0,-19.9 -12.9,-37.52 -31.92,-43.55z"/>
   <path class="fil0" d="M5576.75 10683.21c0,25.26 20.47,45.7 45.7,45.7 25.23,0 45.7,-20.44 45.7,-45.7l0 -1115.25 -91.4 107.2 0 1008.05z"/>
   <path class="fil0" d="M10030.18 9330.74c-7.59,-15.9 -23.65,-25.97 -41.23,-25.97 -0.09,0 -0.18,0 -0.23,0 -17.71,0.09 -33.73,10.38 -41.23,26.41l-619.59 1332.76c-10.62,22.89 -0.71,50.06 22.18,60.74 6.25,2.88 12.81,4.23 19.23,4.23 17.23,0 33.74,-9.78 41.5,-26.42l130.67 -281.08 103.46 -224.18 0.74 0.04 343.84 -739.68 388.02 811.88 -623.41 0 -44.13 91.39 711.22 0 163.49 342.08c10.89,22.71 38.01,32.3 60.95,21.5 22.76,-10.88 32.4,-38.14 21.52,-60.95l-637 -1332.75z"/>
  </g>
 </g>
</svg>
