<?xml version="1.0" encoding="UTF-8"?>
<!DOCTYPE svg PUBLIC "-//W3C//DTD SVG 1.1//EN" "http://www.w3.org/Graphics/SVG/1.1/DTD/svg11.dtd">
<!-- Creator: CorelDRAW 2018 (64-Bit) -->
<svg xmlns="http://www.w3.org/2000/svg" xml:space="preserve" width="200mm" height="200mm" version="1.1" style="shape-rendering:geometricPrecision; text-rendering:geometricPrecision; image-rendering:optimizeQuality; fill-rule:evenodd; clip-rule:evenodd"
viewBox="0 0 20000 20000"
 xmlns:xlink="http://www.w3.org/1999/xlink">
 <defs>
  <style type="text/css">
   <![CDATA[
    .fil0 {fill:#454545;fill-rule:nonzero}
   ]]>
  </style>
 </defs>
 <g id="Слой_x0020_1">
  <metadata id="CorelCorpID_0Corel-Layer"/>
  <g id="_2049376141776">
   <path class="fil0" d="M5340.67 8771.92c678.49,0 1228.32,549.84 1228.32,1228.33 0,678 -549.83,1227.83 -1228.32,1227.83 -678,0 -1227.84,-549.83 -1227.84,-1227.83 0,-678.49 549.84,-1228.33 1227.84,-1228.33z"/>
   <path class="fil0" d="M5340.67 7159.1c1568.99,0 2841.15,1272.15 2841.15,2841.15 0,1568.98 -1272.16,2840.66 -2841.15,2840.66 -439.77,0 -856.2,-100.06 -1227.84,-278.26l0 -949.11c340.67,259.68 766.15,414.05 1227.84,414.05 1120.16,0 2027.82,-907.67 2027.82,-2027.34 0,-1120.16 -907.66,-2027.84 -2027.82,-2027.84 -1119.69,0 -2027.35,907.68 -2027.35,2027.84l0 1989.7c-503.14,-512.67 -813.31,-1214.98 -813.31,-1989.7 0,-1569 1271.68,-2841.15 2840.66,-2841.15z"/>
   <path class="fil0" d="M10554.73 9575c354.45,0 632.11,-305.63 632.11,-695.79 0,-393.26 -277.66,-701.31 -632.11,-701.31 -353.54,0 -630.47,308.05 -630.47,701.31 0,390.16 276.93,695.79 630.47,695.79zm-225.83 -695.98l0 0c0,-178.19 111,-260.55 221,-263.13 60.17,-1.36 115.59,21.03 157.14,63.04 47.03,47.54 71.88,116.76 71.88,200.09 0,81.22 -24.45,149.16 -70.67,196.47 -41.15,42.09 -98.45,65.36 -158.65,65.17 -109.86,-1.29 -220.7,-82.7 -220.7,-261.64z"/>
   <path class="fil0" d="M11775.61 9173.92l179.29 0c354.4,0 520.21,-250.71 524.3,-483.7 2.5,-146.37 -56.97,-283.94 -163.22,-377.43 -93.43,-82.22 -218.31,-125.68 -361.08,-125.68l-596.9 0 0 1369.48 417.61 0 0 -382.67zm0 -610.74l0 0 179.29 0c90.57,0 114.52,81.56 114.52,124.69 0,57.4 -35.83,119.22 -114.52,119.22l-179.29 0 0 -243.91z"/>
   <polygon class="fil0" points="12934.48,9556.59 13296.53,9556.59 13296.53,8548.46 13616.83,8548.46 13616.83,8183.42 12612.52,8183.42 12612.52,8548.46 12934.48,8548.46 "/>
   <path class="fil0" d="M10758.7 10004.87l-758.69 0 0 1804.41 530.78 0 0 -504.14 227.91 0c450.41,0 661.12,-330.38 666.32,-637.37 3.2,-192.85 -72.41,-374.19 -207.4,-497.29 -118.77,-108.38 -277.45,-165.61 -458.92,-165.61zm-227.91 495.52l0 0 227.91 0c115.12,0 145.53,107.47 145.53,164.29 0,75.62 -45.55,157 -145.53,157l-227.91 0 0 -321.29z"/>
   <path class="fil0" d="M13131.19 10626.66c3.15,-175.88 -68.41,-342.71 -196.38,-457.57 -119.66,-107.47 -281.62,-164.22 -468.42,-164.22l-743.48 0 0 1804.41 537.12 0 0 -555.62 0 0.39 310.96 555.23 607.95 0 -374.7 -645.92c197.47,-110.56 321.32,-311.48 326.95,-536.7zm-871.16 -131.12l0 0 196.2 0c41.27,0 75.31,11.82 101.08,35.24 28.91,26.13 45.49,65.85 44.35,106.06 -1.58,51.92 -41.58,129.12 -145.43,129.12l-196.2 0 0 -270.42z"/>
   <polygon class="fil0" points="15356.71,10755.27 14834.8,10019.41 14426.81,10019.41 14426.81,11809.28 14952.61,11809.28 14952.61,11093.49 15467.27,11809.28 15880.03,11809.28 15880.03,10019.41 15356.71,10019.41 "/>
   <polygon class="fil0" points="16176.72,10000 16176.72,10480.98 16600.93,10480.98 16600.93,11809.28 17077.97,11809.28 17077.97,10480.98 17499.99,10480.98 17499.99,10000 "/>
   <polygon class="fil0" points="14045.64,11345.3 14045.64,10480.98 14045.64,10009.71 13492.15,10009.71 13492.15,10480.98 13492.15,11345.3 13492.15,11809.28 14045.64,11809.28 "/>
  </g>
 </g>
</svg>
