<svg version="1" xmlns="http://www.w3.org/2000/svg" width="897" height="664" viewBox="0 0 8970 6640">
    <path d="M20 20 L20 6620 8950 6620 8950 20z" fill="#454545"/>
    <g fill="#ffffff">
        <path d="M0 3320V0h8970v6640H0V3320zm1463 883c11-11 36-18 59-19 30 0 46-6 59-23 15-18 22-20 39-11 28 15 57 4 75-28 9-18 14-22 15-10 0 30 25 25 41-8 12-27 13-46 6-96-5-35-12-70-16-78-10-19-50-26-47-8 0 7-2 15-6 18-10 8-108-53-108-67 0-7-12-23-26-36-25-24-26-24-4-30 16-4 23 1 31 20 8 23 14 25 45 20 19-3 47-2 61 4 19 7 28 6 33-1 9-15 11-15 38-1 19 10 22 9 22-9 0-14 7-20 23-20 13 0 28-5 35-12 17-17 15-48-3-48-10 0-15-10-15-34 0-41 7-43 113-41 89 2 96-6 42-54-19-17-35-33-35-35 0-3 14-3 30 1 27 5 31 3 36-24 6-29 8-30 50-25 44 5 44 4 44-27 0-26 4-31 25-31s25-5 25-30c0-24 6-32 35-44 34-14 40-34 19-67-3-6 3-17 15-25 25-18 28-62 5-71-13-5-11-10 9-32 20-20 23-31 16-48-4-13-14-23-20-23-7 0-2-11 10-24 29-30 25-70-6-74-22-3-22-5-8-32 21-40 19-70-3-70-16 0-18-7-14-59 4-62-7-83-33-61-13 11-15 5-14-42 2-64-6-94-26-102-15-6-34 18-90 118-15 28-41 64-56 80-15 17-41 46-57 65-31 37-51 36-47-4 3-27-4-32-23-13-9 9-12 3-12-27 0-45-6-57-35-73-18-10-18-11-2-12 10 0 28-11 41-23 21-21 23-29 16-68-5-24-7-45-6-47 2-1 16 2 31 8 20 8 25 15 20 28-29 68-29 70-11 97 12 18 14 30 7 39-6 7-6 17-1 26 14 22 44 0 48-34 2-18 9-26 23-26 10 0 19 5 19 11 0 8 5 8 15-1 19-16 19-44 0-64-8-8-12-22-9-30 12-31-6-67-39-81-18-7-43-25-56-39-30-31-44-32-87-5-38 23-44 51-19 99 17 32 12 56-15 70-16 8-17 5-12-35 4-43 3-46-27-56-25-9-31-17-31-39 0-15-6-30-14-33-19-8-38 16-30 37 4 11-1 19-18 25-40 15-52 36-39 72 6 18 11 34 11 36 0 8-80-41-96-58-14-15-13-20 5-50 25-40 28-111 6-129-8-7-29-15-47-19-29-6-32-9-32-51-1-35-5-45-19-48-32-6-47 16-40 63 5 41 4 42-19 38-31-6-78 31-78 61 0 12 11 45 25 72s25 50 25 52c0 4-93 62-100 62-3 0-4-18-2-40 4-38 2-42-27-53-24-9-31-17-31-39 0-32-15-44-35-28-9 8-13 21-9 36 4 17 2 24-9 24-8 0-24 8-36 18-19 15-20 22-11 51 12 43 5 51-22 24-20-21-20-23-4-63 20-51 13-80-25-103-42-24-66-21-85 8-9 14-27 28-39 31-39 10-58 39-52 79 4 26 2 35-9 35-16 0-19 47-4 70 8 13 11 13 19 1 12-18 41-7 41 17 0 21 18 42 38 42 10 0 12-7 8-25-4-15-1-34 8-48 13-19 13-27 0-62-16-47-13-60 15-68 19-5 20-2 15 33-8 47 8 77 49 95 18 8 24 14 15 15-28 0-49 40-42 78 6 32 6 34-15 23-18-10-21-9-21 6 0 33 29 63 60 63 16 0 32-5 36-12 5-7 10-3 16 12l9 24 15-22c12-17 25-22 59-22 57 0 98 43 93 99-3 31-8 37-35 46-18 5-33 15-33 22 0 8-11 18-25 23s-25 14-25 19c0 6-11 26-24 45-20 30-26 33-36 21-9-11-7-19 10-37 38-40 23-88-52-166-34-37-69-67-77-67-15 0-61-54-61-72 0-7-6-13-14-13-13 0-63-71-121-172-15-27-31-48-35-48-33 0-51 90-29 146 10 27 9 27-9 11-10-9-24-17-30-17-17 0-25 61-13 93 14 37 14 37-9 37-24 0-26 28-5 70 15 28 14 29-13 32-22 2-27 7-24 28 1 13 12 34 23 46l21 22-21 7c-28 8-26 27 4 63 20 24 22 31 10 36-20 7-19 53 2 65 14 7 15 14 6 33-14 31 0 66 30 73 13 4 28 18 34 36 6 16 19 29 27 29 10 0 19 11 22 29 7 33 46 50 70 30 11-9 16-6 25 20 8 21 17 31 32 31 19 0 18 3-11 33-18 18-32 38-32 44 0 7 36 11 97 12 54 1 98 3 99 4s5 17 9 35c5 26 3 33-13 40-29 11-11 52 23 52 16 0 25 6 25 16 0 12 6 15 27 10 16-5 29-3 33 5 5 7 13 8 21 3s37-9 64-9c44 0 50-3 53-22 4-25 9-27 32-13 13 8 12 12-7 25-13 9-23 24-23 33 0 10-22 30-53 47-70 40-67 39-67 16 0-25-22-27-45-4-11 10-15 26-11 42 2 14 0 40-6 56-8 24-6 39 8 71 19 44 44 50 44 10 1-17 3-15 15 11 15 36 45 49 75 33 17-9 24-7 39 11 13 17 29 23 59 23 25 1 48 8 59 19 9 9 19 17 22 17 2 0 13-8 24-17zm1272-628l11-50 125-6c127-6 165-16 201-56 28-31 48-89 48-142 0-43-4-53-31-75l-31-26h-193c-176 0-194 2-199 18-9 26-76 364-76 379 0 11 15 13 67 11l68-3 10-50zm852 31c43-27 69-77 87-175 23-118 21-157-8-186-31-31-82-38-257-33-208 5-236 25-269 192-25 123-25 147 1 180 31 39 68 45 249 43 142-2 169-5 197-21zm579 0c37-22 60-57 69-108l7-38h-66c-61 0-67 2-75 24-5 13-17 26-26 30-25 9-208 7-224-3-12-8-12-21-1-86 7-42 19-83 27-91 11-10 42-14 121-14 114 0 135 6 130 36-3 17 5 19 64 22 66 3 68 2 74-24 10-41-8-95-39-118-25-19-45-21-175-25-259-6-300 17-336 193-29 143-18 196 47 215 18 6 109 9 202 8 147-2 174-5 201-21zm244-26l42-51 115 3 115 3 18 45 18 45 76 3c42 2 76 0 76-4s-35-97-77-206l-78-198h-181l-153 191c-83 104-155 197-158 205-4 11 8 14 70 14h75l42-50zm927 27c61-33 94-117 68-171-13-26-13-31 5-54 12-15 20-40 20-63 0-92-18-99-269-99-200 0-201 0-206 23-10 44-75 371-75 379 0 6 91 8 213 6 180-3 217-6 244-21zm407 6c3-10 17-80 32-155l27-138h93c69 0 94-3 94-12 0-7 3-30 6-50l7-38h-252c-194 0-251 3-251 13 0 6-3 29-6 50l-7 37h87c66 0 86 3 86 14 0 7-11 68-25 136-35 171-37 160 39 160 53 0 66-3 70-17zm651 7c61-14 99-62 120-151 53-233 31-259-216-259-169 0-219 11-258 55-31 35-58 130-68 235-4 46-2 59 17 82 11 15 36 32 53 37 42 12 301 13 352 1zm718 3c3-5 8-29 12-55 7-44 6-48-14-48-26 0-26 4 8-162l28-138h-233c-129 0-234 2-234 4 0 19-45 216-52 231-17 34-51 65-69 65s-24 11-35 73l-6 37h295c163 0 298-3 300-7zm473-4c58-15 98-61 113-131 32-147 36-188 20-216-28-51-69-62-227-62-172 0-222 10-261 55-31 35-58 130-68 235-4 46-2 59 17 82 11 15 36 32 53 37 46 13 300 13 353 0zm268-6c3-10 8-35 12-55l6-38h94c172 0 238-29 268-117 23-68 21-116-8-150l-24-28-204-3-203-3-38 193c-21 106-38 199-37 206 0 8 20 12 64 12 53 0 66-3 70-17zm-4740-483c36 0 46 4 46 16 0 14 3 14 16 3 8-7 13-21 10-32-2-10-1-29 3-41 5-11 11-33 15-48 6-28 6-28-48-28h-54l-10 43c-6 24-21 52-32 62s-20 28-20 39c1 20 2 20 14 4 9-13 27-18 60-18zm1860 0c25 0 45 4 44 9-2 5 2 11 7 13 6 1 13-15 16-37s9-57 14-77l7-38h-100l-17 51c-10 28-23 53-30 55-15 6-26 40-17 49 4 3 12-1 18-9 7-11 27-16 58-16zm-2193-20c31 0 59-32 59-67 0-53-155-46-174 8-12 36-2 59 28 59 14 0 28 5 32 11 4 8 9 8 17 0 6-6 23-11 38-11zm204 10c4-6-7-10-24-10-24 0-31-4-31-20 0-15 7-20 29-20 17 0 33-4 36-10 4-6-7-10-25-10-42 0-35-24 8-28 48-5 38-24-10-20-41 3-42 4-55 53-7 28-13 56-13 63 0 15 76 17 85 2zm355 0c0-5-14-10-31-10-44 0-37-34 9-38 40-4 42-22 2-22-22 0-28-4-24-15 4-9 19-15 40-15 19 0 34-4 34-10 0-5-20-10-44-10h-45l-15 54c-22 75-22 76 29 76 25 0 45-4 45-10zm94-15c5-21 12-25 40-25 40 0 68-24 64-54-3-18-10-21-52-21h-49l-13 45c-8 25-14 53-14 63 0 26 17 21 24-8zm156 10c7-8 25-15 40-15 16 0 30 7 34 15 3 8 10 15 16 15 8 0 9-16 5-47-9-68-15-83-29-83-11 0-96 110-96 125 0 10 18 5 30-10zm191-1c8-9 19-33 24-53 9-31 15-36 44-39 37-4 36-12 14 86-11 47 16 19 31-32 23-78 24-77-41-74l-57 3-14 48c-7 27-20 51-28 54s-14 9-14 14c0 15 27 10 41-7zm280-5c30-30 21-53-22-57-32-3-36-6-31-28 2-13 0-24-6-24-11 0-42 88-42 117 0 22 77 16 101-8zm106-9c5-26 10-30 40-30 34 0 34 1 28 31-5 23-4 30 5 27 13-4 40-78 40-110 0-27-17-22-24 7-5 20-12 25-40 25-31 0-33-2-28-26 3-19 1-25-8-22-13 4-40 78-40 111 0 29 20 19 27-13zm272 11c21-21 37-83 26-100-10-16-81-13-99 4-17 18-31 78-22 100 8 22 72 19 95-4zm171 9c0-5-13-10-30-10-32 0-33-1-24-24 4-10 18-16 35-16 16 0 29-4 29-10 0-5-11-10-25-10-16 0-25-6-25-15 0-10 11-15 35-15 19 0 35-4 35-10 0-5-20-10-43-10h-44l-16 60c-10 33-17 62-17 65s20 5 45 5 45-4 45-10zm602-7c23-26 38-89 25-102-20-20-84-13-101 11-24 33-32 88-15 99 24 15 75 10 91-8zm112-8c5-21 12-25 40-25 40 0 68-24 64-54-3-18-10-21-52-21h-49l-13 45c-8 25-14 53-14 63 0 26 17 21 24-8zm256 15c21-11 45-83 36-106-7-18-90-19-103-1-6 6-16 29-23 50-9 30-9 41 0 52 14 17 63 20 90 5zm126-15c18-14 36-25 39-25 4 0 4 11 1 25-9 34 12 32 25-2l11-28 23 28c22 24 45 36 45 22 0-3-10-19-22-36-14-19-19-33-12-37 43-29 57-43 51-49-4-3-21 3-37 15-35 26-42 27-38 6 5-29-19-26-26 2l-7 28-24-30c-28-35-44-27-19 11 16 25 16 26-2 41-10 8-27 19-36 25-17 9-25 29-11 29 3 0 21-11 39-25zm235-5c9-25 16-30 45-30 32 0 33 1 28 30-11 51 14 34 31-22 8-28 15-58 15-65 0-23-19-14-26 12-5 21-12 25-41 25-33 0-35-2-29-26 5-19 3-25-6-22-14 5-49 108-41 121s14 7 24-23zm269 20c21-11 45-83 36-106-7-18-89-19-104-1-19 23-32 90-20 104 13 15 62 17 88 3zm180 0c0-5-14-10-31-10-44 0-37-34 9-38 40-4 42-22 2-22-22 0-28-4-24-15 4-9 19-15 40-15 19 0 34-4 34-10 0-5-20-10-45-10-43 0-45 1-54 38-26 100-29 92 23 92 25 0 46-4 46-10zm310-5c17-20 60-19 76 2 7 10 15 15 19 12 10-11-9-122-22-126-10-4-103 106-103 121 0 11 18 6 30-9zm201-45c12-47 15-50 45-50 18 0 36-5 39-11 5-7-9-9-41-7l-48 3-17 55c-9 30-15 58-12 63 9 15 21-4 34-53zm209 50c0-5-14-10-31-10-44 0-37-34 9-38 40-4 42-22 2-22-22 0-28-4-24-15 4-9 19-15 40-15 19 0 34-4 34-10 0-5-20-10-44-10h-43l-17 58c-9 32-16 61-16 65s20 7 45 7 45-4 45-10zm97-20c5-26 10-30 40-30 34 0 34 1 28 31-5 23-4 30 5 27 13-4 40-78 40-110 0-27-17-22-24 7-5 21-12 25-41 25-33 0-35-2-29-26 5-20 3-25-7-22-12 4-38 83-39 116 0 25 21 11 27-18zm228-25c12-43 20-55 35-55 11 0 20-4 20-10 0-5-22-10-50-10-27 0-50 5-50 10 0 6 7 10 16 10 12 0 15 6 10 26-16 63-18 84-8 84 6 0 18-25 27-55zm186 45c10-6 19-17 19-25 0-20-19-19-26 0-9 23-54 19-54-4 0-41 19-71 45-71 14 0 25 5 25 10 0 6 7 10 16 10s14-7 12-17c-4-22-72-30-94-12-18 15-38 83-31 103 7 18 58 22 88 6zm144-45c13-42 21-55 36-55 10 0 19-4 19-10 0-5-22-10-50-10-27 0-50 5-50 10 0 6 7 10 16 10 17 0 17-2-3 88-3 12-1 22 6 22 6 0 18-25 26-55zm193 39c13-9 22-23 21-32-1-10 1-25 6-34 14-33-1-48-50-48-50 0-58 10-71 91l-7 39h39c22 0 50-7 62-16zm197-4c11-12 19-37 19-63 1-42 1-42-37-45-26-2-45 2-57 13-20 18-36 87-25 105s80 12 100-10z"/>
        <path d="M1574 3978c-4-7-3-8 4-4s12 9 12 12c0 8-9 4-16-8zM1454 3800c46-6 92-17 113-30 19-11 42-20 51-19 9 0-8 12-38 26-40 19-76 26-130 29l-75 3 79-9zM1348 3793c7-3 16-2 19 1 4 3-2 6-13 5-11 0-14-3-6-6zM1300 3780c-8-5-10-10-5-10 6 0 17 5 25 10s11 10 5 10c-5 0-17-5-25-10zM1270 3760c0-5 5-10 11-10 5 0 7 5 4 10-3 6-8 10-11 10-2 0-4-4-4-10zM1393 3763c26-2 68-2 95 0 26 2 4 3-48 3s-74-1-47-3zM1061 3644c0-11 3-14 6-6 3 7 2 16-1 19-3 4-6-2-5-13zM1310 3653c-14-2-75-10-137-20-108-16-112-17-115-42s-5-26-75-27c-54 0-78-5-97-19-50-38-41-43 72-42 112 0 125 5 115 44-4 17-1 23 11 23 9 0 16-5 16-11s7-3 16 5c27 27 51 19 78-26 18-31 22-44 13-49-7-4-55-10-107-14s-108-9-125-11c-16-2-58-4-93-4-39 0-61-4-57-10 7-12 485-14 485-2 0 4-21 36-46 71-25 34-43 65-41 68 3 2 48 7 101 10 69 4 96 3 96-6 0-6 7-11 15-11s15 5 15 11c0 12 173 9 186-3 4-4-12-32-35-63-66-88-69-84 61-88 97-2 90-3-49-5l-163-2v45c0 25-4 45-10 45-5 0-10-20-10-45v-45h-269c-158 0-272-4-276-9-3-6 34-10 92-9 54 0 98-3 98-7 0-5-28-7-62-6-35 1-64-2-68-8-4-7 8-11 32-12 42-1 96-4 253-14 102-7 106-8 150-44l45-36-20 31c-57 87-42 81-204 83-57 0-102 4-98 7 4 5 176 7 299 5 26-1 27-3 31-63l3-63 2 62c2 77-3 75 185 71 176-4 189-22 17-26l-125-3-25-37c-42-62-44-68-14-41 16 14 36 30 44 36 9 7 66 15 128 19 129 8 127 9 86-74-33-67-110-135-182-162-79-30-195-25-267 12-58 31-124 96-153 153-12 22-21 36-21 30-1-24 62-116 102-149 72-59 130-80 222-80 67 0 90 4 142 28 78 35 145 105 183 189l28 62 64 3c34 2 67 7 72 12 6 6-19 9-62 7-43-1-72 2-72 8s37 9 95 8c57-2 95 1 95 7s-35 10-82 10c-45 0-79 3-75 6 3 4 55 6 114 5 110-2 138 11 35 16-31 2-68 5-82 7-14 1-42 4-62 4-33 2-37 5-43 35-4 17-9 40-11 50-4 11 0 17 10 17 11 0 16-10 16-33v-32l93-2c111-3 131 5 93 38-22 19-38 23-99 23-70 1-72 2-75 27-3 23-9 27-65 37-150 28-331 38-437 25zm450-99c6-14 10-38 10-54v-29l-57 6c-32 3-62 9-66 13-5 4 3 26 17 49 21 33 32 41 56 41s33-6 40-26zm47-121c-4-3-10-3-14 0-3 4 0 7 7 7s10-3 7-7z"/>
        <path d="M1425 3560c-4-6-3-16 3-22s12-6 17 2c4 6 3 16-3 22s-12 6-17-2zM1091 3514c0-11 3-14 6-6 3 7 2 16-1 19-3 4-6-2-5-13zM1100 3350c0-7 3-10 7-7 3 4 3 10 0 14-4 3-7 0-7-7zM1230 3323c0-6-14-16-30-23-17-7-33-17-36-22-4-5 7-3 24 6 30 16 42 13 42-11 0-7-9-13-19-13-11 0-23-4-26-10-4-7 82-10 252-9 142 1 247 4 233 8-17 5-25 15-27 31 0 14-1 30-2 37-1 8-13 4-35-10-36-24-41-36-7-17 19 10 21 8 21-16 0-25-1-26-47-19-27 3-112 6-190 6-109 0-143 3-143 13 0 22 12 26 41 11 15-8 34-15 41-15 7 1-3 8-22 16s-42 22-52 31-18 11-18 6zM1670 3290c8-5 20-10 25-10 6 0 3 5-5 10s-19 10-25 10c-5 0-3-5 5-10z"/>
        <path d="M1543 3273c4-3 10-3 14 0 3 4 0 7-7 7s-10-3-7-7zM1733 3225c-13-19-23-39-23-45 0-5-7-10-16-10s-18-9-21-20-11-20-19-20c-28 0-64-24-64-42 0-24 16-56 43-85 27-31 88-31 116-2 15 16 21 18 28 7 4-7 26-13 50-13h42l-61 62c-54 54-62 67-61 98 1 20 8 47 17 61 16 23 14 44-2 44-4 0-17-16-29-35zM1416 2987c-13-35-15-52-7-55 6-2 11-12 11-23 0-15-7-19-34-19-43 0-49-9-30-44 7-16 14-33 14-39 0-18 34-36 70-36 38 0 70 18 70 40 0 8 6 26 14 41 16 30 7 38-45 38-23 0-27 3-22 18 4 9 11 20 16 23 5 4 2 20-7 37s-16 38-16 46c0 34-17 21-34-27zM2776 3373c4-21 9-41 11-45 6-11 165-10 181 1 21 13 10 54-18 68-14 7-60 13-103 13h-78l7-37zM3272 3511c-12-7-11-21 2-87 10-47 23-84 33-91 21-16 229-18 238-3 11 18-18 153-37 172-15 15-35 18-120 18-57 0-109-4-116-9zM4560 3390c17-22 35-42 40-45 6-4 40 63 40 80 0 3-25 5-56 5h-56l32-40zM5042 3498c3-22 7-23 121-26 110-2 117-1 117 17 0 27-18 31-137 31-103 0-104 0-101-22zM5072 3348c3-22 8-23 111-26 84-2 107 0 107 11 0 30-25 37-123 37-96 0-98 0-95-22zM6121 3511c-13-8-13-20 2-86 9-43 22-84 28-91 16-19 237-20 245-1 8 23-26 161-43 175-20 14-210 17-232 3zM6740 3517c0-2 6-17 14-33s19-59 26-96l12-68h94c109 0 103-9 78 118l-17 82h-103c-57 0-104-2-104-3zM7311 3511c-12-8-13-20-2-81 19-105 27-110 161-110 85 0 112 3 116 14 9 24-24 160-42 173-21 15-211 18-233 4zM7900 3391c0-11 4-31 10-45 9-25 13-26 92-26 94 0 111 7 106 41s-43 49-130 49c-71 0-78-2-78-19zM3104 3093c3-10 8-30 12-45 5-22 12-28 34-28h29l-13 43c-10 35-16 43-40 45-23 3-27 0-22-15zM4967 3065c12-37 19-45 39-45 27 0 28 1 13 53-8 32-14 37-39 37h-29l16-45zM2692 3069c3-23 33-48 44-37 3 4 4 19 0 33-8 33-49 36-44 4zM2764 3068c3-13 6-26 6-30 0-5 9-8 19-8 26 0 31 10 20 38-5 13-17 22-30 22-17 0-20-4-15-22zM3452 3043c2-11 14-19 31-21 23-3 28 0 25 15-2 11-14 19-31 21-23 3-28 0-25-15zM3620 3071c0-5 6-14 14-20 11-9 15-8 20 5 9 23 8 24-14 24-11 0-20-4-20-9zM3990 3091c0-17 6-21 31-21 24 0 30 4 27 18-2 10-14 18-31 20-22 3-27-1-27-17zM4360 3103c0-5 5-25 11-45 9-33 14-38 39-38 33 0 38 17 20 64-7 20-16 26-40 26-16 0-30-3-30-7zM5140 3091c0-11 4-31 10-45 7-20 16-26 41-26 29 0 30 1 24 33-10 42-22 57-51 57-17 0-24-6-24-19zM5342 3043c2-11 14-19 31-21 23-3 28 0 25 15-2 11-14 19-31 21-23 3-28 0-25-15zM5510 3096c0-7 5-27 11-45 9-25 16-31 40-31 32 0 35 10 18 59-9 25-16 31-40 31-18 0-29-5-29-14zM6140 3103c0-5 5-25 11-45 9-33 14-38 41-38 30 0 30 1 23 37-4 21-9 41-11 45-7 10-64 10-64 1zM6740 3060c6-11 15-20 20-20 6 0 10 9 10 20 0 13-7 20-20 20-18 0-19-3-10-20zM7890 3091c0-17 6-21 31-21 24 0 30 4 27 18-2 10-14 18-31 20-22 3-27-1-27-17zM7902 3038c7-20 58-23 58-4 0 11-10 16-31 16-20 0-29-4-27-12zM8077 3103c-3-5 0-24 7-43 9-29 16-36 44-38 31-3 32-2 26 25-11 47-24 63-49 63-13 0-26-3-28-7z"/>
    </g>
</svg>