<?xml version="1.0" encoding="UTF-8"?>
<!DOCTYPE svg PUBLIC "-//W3C//DTD SVG 1.1//EN" "http://www.w3.org/Graphics/SVG/1.1/DTD/svg11.dtd">
<!-- Creator: CorelDRAW 2018 (64-Bit) -->
<svg xmlns="http://www.w3.org/2000/svg" xml:space="preserve" width="200mm" height="200mm" version="1.1" style="shape-rendering:geometricPrecision; text-rendering:geometricPrecision; image-rendering:optimizeQuality; fill-rule:evenodd; clip-rule:evenodd"
viewBox="0 0 20000 20000"
 xmlns:xlink="http://www.w3.org/1999/xlink">
 <defs>
  <style type="text/css">
   <![CDATA[
    .fil0 {fill:#454545;fill-rule:nonzero}
   ]]>
  </style>
 </defs>
 <g id="Слой_x0020_1">
  <metadata id="CorelCorpID_0Corel-Layer"/>
  <g id="_2049376167824">
   <g>
    <path class="fil0" d="M12177.96 11326.44c-15.78,19.87 -33.41,35.11 -52.89,45.73 -19.49,10.62 -39.52,15.96 -60.07,15.96 -30.62,0 -55.77,-11.48 -75.52,-34.46 -19.72,-22.91 -29.57,-52.34 -29.57,-88.21 0,-29.18 5.13,-58.15 15.42,-86.95 10.27,-28.81 24.74,-55.19 43.4,-79.07 17.69,-22.71 37.31,-40.05 58.83,-52.04 21.52,-11.95 43.97,-17.89 67.39,-17.89 22.01,0 40.54,5.94 55.6,17.89 15.07,11.99 25.94,29.33 32.63,52.04l21.87 -58.15 58.83 0 -16.85 45.6c-19.37,53.56 -35.22,103.5 -47.51,149.91 -12.33,46.39 -18.48,75.51 -18.48,87.5 0,7.63 1.25,13.42 3.76,17.38 2.52,3.97 6.4,5.9 11.67,5.9 7.87,0 18.39,-7.88 31.55,-23.63 13.14,-15.8 28.08,-38.52 44.83,-68.15l21.16 12.55c-21.75,40.65 -42.08,70.19 -60.98,88.58 -18.88,18.39 -38.24,27.6 -58.08,27.6 -15.3,0 -26.97,-4.28 -34.96,-12.92 -8.04,-8.59 -12.03,-21.04 -12.03,-37.29l0 -7.88zm-151.35 -50.92l0 0c0,22.97 5.51,40.8 16.5,53.6 10.99,12.82 26.05,19.22 45.19,19.22 17.22,0 33.23,-5.9 48.05,-17.58 14.83,-11.74 27.75,-28.57 38.74,-50.56 10.26,-20.33 18.95,-44.58 26,-72.62 7.05,-28.1 10.59,-51.73 10.59,-70.85 0,-21.99 -5.33,-39.22 -15.98,-51.67 -10.63,-12.41 -25.29,-18.66 -43.93,-18.66 -16.49,0 -32.22,5.9 -47.16,17.58 -14.94,11.74 -28.38,28.62 -40.34,50.57 -11.01,20.58 -20.03,44.1 -27.07,70.68 -7.07,26.54 -10.59,49.96 -10.59,70.29z"/>
    <path class="fil0" d="M12517.58 11032.71l-13.98 66.73c19.12,-22.71 38.32,-39.69 57.56,-50.92 19.23,-11.28 39.28,-16.87 60.06,-16.87 31.33,0 56.38,10.66 75.13,32.07 18.78,21.43 28.16,50.15 28.16,86.27 0,29.89 -5.08,59.46 -15.23,88.74 -10.19,29.31 -24.33,55.08 -42.51,77.3 -19.13,22.96 -40.03,40.69 -62.75,53.25 -22.71,12.55 -45.43,18.85 -68.14,18.85 -20.33,0 -38.37,-4.72 -54.15,-14.18 -15.79,-9.45 -28.59,-23.13 -38.4,-41.06l-35.84 124.8c-1.44,5.24 -2.57,10.22 -3.41,14.9 -0.84,4.68 -1.27,8.54 -1.27,11.64 0,6.96 2.77,11.58 8.26,14.03 5.49,2.33 15.55,3.55 30.14,3.55l15.41 0 -4.32 27.23 -175.02 0 7.55 -27.23 31.56 -2.14c6.46,-0.5 11.46,-2.39 15.07,-5.74 3.58,-3.36 7.29,-11.74 11.11,-25.1l102.22 -355.42c1.42,-4.53 2.51,-8.94 3.22,-13.26 0.72,-4.32 1.07,-8.04 1.07,-11.14 0,-8.58 -3.54,-14.38 -10.57,-17.37 -7.07,-3 -25.29,-4.47 -54.71,-4.47l7.55 -26.58 126.23 -7.88zm78.54 39.44l0 0c-17.45,0 -33.77,5.58 -48.95,16.72 -15.19,11.07 -28.76,27.28 -40.69,48.57 -11.97,21.3 -21.95,46.1 -29.96,74.4 -8.01,28.35 -12.02,52.54 -12.02,72.62 0,22.51 5.56,39.9 16.69,52.19 11.11,12.34 26.94,18.49 47.52,18.49 17.2,0 33.29,-5.59 48.22,-16.71 14.94,-11.08 28.39,-27.64 40.35,-49.65 12.42,-22.46 22.41,-47.11 29.96,-73.88 7.53,-26.79 11.29,-50.07 11.29,-69.94 0,-23.17 -5.45,-41.11 -16.32,-53.81 -10.88,-12.65 -26.25,-19 -46.09,-19z"/>
    <path class="fil0" d="M12776.52 11376.28l78.18 -247.47c2.39,-8.33 4.29,-15.96 5.75,-22.78 1.42,-6.8 2.15,-11.99 2.15,-15.59 0,-8.85 -3.12,-14.79 -9.32,-17.93 -6.22,-3.12 -24.16,-4.64 -53.81,-4.64l6.45 -26.58 126.62 -7.87 -19.37 95.39c21.27,-30.59 43.5,-54.28 66.7,-71 23.19,-16.71 45.3,-25.1 66.34,-25.1 22,0 39.28,7.02 51.83,20.99 12.55,13.97 18.84,33.38 18.84,58.28 0,1.18 -0.14,3.05 -0.36,5.55 -0.26,2.49 -0.37,4.47 -0.37,5.94 22.47,-29.16 45.32,-51.63 68.51,-67.28 23.17,-15.65 45.04,-23.48 65.64,-23.48 20.54,0 37.46,6 50.74,17.94 13.26,11.94 19.88,27.03 19.88,45.18 0,6.71 -1.06,15.5 -3.21,26.37 -2.14,10.87 -5.27,22.41 -9.34,34.61l-49.11 150.62c-1.68,4.78 -3.05,9.55 -4.14,14.33 -1.06,4.78 -1.61,8.49 -1.61,11.13 0,5.29 1.3,9.24 3.94,11.99 2.63,2.8 6.7,4.17 12.2,4.17 9.32,0 20.99,-7.06 34.97,-21.19 14,-14.08 31.86,-36.94 53.61,-68.51l21.52 14.03c-25.33,39.7 -47.94,67.94 -67.8,84.82 -19.84,16.81 -39.91,25.25 -60.24,25.25 -16.74,0 -30.53,-5.18 -41.42,-15.59 -10.87,-10.43 -16.3,-23.48 -16.3,-39.3 0,-6.44 0.89,-13.76 2.69,-22.05 1.78,-8.23 5.54,-20.47 11.28,-36.73l43.04 -127.66c2.88,-8.13 5.08,-15.91 6.64,-23.33 1.55,-7.42 2.33,-13.61 2.33,-18.64 0,-9.1 -2.82,-16.27 -8.44,-21.55 -5.62,-5.24 -13.33,-7.88 -23.11,-7.88 -13.39,0 -27.92,5.44 -43.59,16.32 -15.66,10.87 -31.98,26.98 -48.96,48.22 -29.16,36.39 -54.15,94.12 -74.94,173.24l-0.73 2.54 -17.58 65.24 -62.39 0c5.03,-15.03 11.96,-37.55 20.81,-67.42 3.8,-12.91 6.68,-22.47 8.6,-28.66l40.89 -137.36c2.14,-6.71 3.71,-13.17 4.64,-19.37 0.98,-6.25 1.45,-12.35 1.45,-18.29 0,-11.24 -2.69,-19.83 -8.07,-25.67 -5.38,-5.84 -13.22,-8.79 -23.48,-8.79 -30.39,0 -60.45,21.39 -90.2,64.18 -29.78,42.84 -54.58,101.55 -74.42,176.14l-17.58 65.24 -66.35 0z"/>
    <polygon class="fil0" points="13421.37,11231.77 13435.34,11177.24 13611.81,11177.24 13597.81,11231.77 "/>
    <path class="fil0" d="M13880.77 11288.07l19 15.4c-22.97,29.93 -45.73,51.73 -68.34,65.45 -22.57,13.78 -46.78,20.64 -72.6,20.64 -25.82,0 -45.89,-6.4 -60.25,-19.16 -14.36,-12.81 -21.52,-30.7 -21.52,-53.67 0,-16.97 4.9,-32.06 14.71,-45.32 9.81,-13.27 31.3,-30.91 64.53,-52.92 44.02,-29.16 71.68,-50.5 83.05,-64.01 11.34,-13.53 17.02,-27.91 17.02,-43.21 0,-11.02 -4.36,-20.62 -13.1,-28.91 -8.74,-8.23 -19.05,-12.35 -31.05,-12.35 -15.25,0 -30.44,4.62 -45.49,13.83 -15.07,9.18 -30.97,23.73 -47.7,43.54l-16.86 -13.97c18.16,-27.24 39.19,-48.28 63.1,-63.12 23.9,-14.84 49.14,-22.26 75.66,-22.26 22.26,0 40.4,6.36 54.53,19.02 14.12,12.7 21.14,28.7 21.14,48.07 0,30.14 -31.66,68.24 -95.04,114.39 -6.7,4.77 -11.68,8.48 -15.03,11.12 -22.5,16.27 -39.05,31.55 -49.67,45.89 -10.65,14.38 -15.96,28.46 -15.96,42.34 0,11.99 3.82,21.74 11.46,29.41 7.66,7.69 17.59,11.49 29.77,11.49 15.05,0 31.2,-5.38 48.43,-16.15 17.18,-10.78 33.95,-25.92 50.21,-45.54z"/>
    <path class="fil0" d="M13987.28 11250.06c0,-26.79 5.24,-53.82 15.76,-81.05 10.52,-27.29 25.1,-51.63 43.75,-73.18 18.91,-22.01 39.9,-38.68 62.97,-50.01 23.07,-11.38 47.35,-17.08 72.97,-17.08 39.68,0 71.7,12.82 96.09,38.43 24.39,25.56 36.59,59.04 36.59,100.4 0,26.54 -4.72,52.92 -14.17,79.08 -9.46,26.17 -22.51,49.09 -39.24,68.65 -20.58,24.4 -42.58,42.75 -66.01,55.1 -23.42,12.3 -48.17,18.44 -74.24,18.44 -40.86,0 -73.53,-12.65 -97.88,-38.02 -24.39,-25.35 -36.59,-58.94 -36.59,-100.76zm65.97 31.55l0 0c0,25.11 5.78,44.58 17.38,58.44 11.63,13.89 27.79,20.85 48.63,20.85 17.43,0 33.73,-5.3 48.93,-15.82 15.2,-10.51 28.26,-25.56 39.29,-45.18 12.64,-22.26 22.97,-48.47 30.85,-78.71 7.87,-30.24 11.83,-58.19 11.83,-83.75 0,-26.07 -5.89,-46.14 -17.59,-60.26 -11.72,-14.08 -28.35,-21.15 -49.84,-21.15 -16.73,0 -32.63,5.4 -47.72,16.12 -15.04,10.77 -28.3,26.21 -39.8,46.29 -12.18,21.49 -22.25,47.62 -30.13,78.36 -7.88,30.69 -11.83,59 -11.83,84.81z"/>
    <path class="fil0" d="M14625.65 11294.87c-22.97,32.28 -46.35,56.12 -70.13,71.56 -23.77,15.4 -49.4,23.13 -76.88,23.13 -36.84,0 -66.62,-12.82 -89.34,-38.37 -22.72,-25.56 -34.05,-59.56 -34.05,-101.84 0,-29.17 5.64,-57.17 17.03,-83.96 11.33,-26.77 27.89,-51.52 49.65,-74.24 19.16,-20.07 39.78,-35.47 61.89,-46.24 22.11,-10.77 44.42,-16.17 66.88,-16.17 28,0 51.11,7.58 69.42,22.61 18.29,15.05 27.43,33.96 27.43,56.68 0,16.25 -4.36,29.41 -13.11,39.42 -8.73,10.06 -20.02,15.09 -33.9,15.09 -11.72,0 -21.03,-3.34 -27.93,-10.06 -6.97,-6.65 -10.43,-15.54 -10.43,-26.52 0,-13.36 6.25,-23.98 18.8,-31.76 12.56,-7.72 18.86,-13.42 18.86,-17.02 0,-5.48 -4.68,-10.53 -13.97,-15.04 -9.35,-4.58 -20.33,-6.82 -33.04,-6.82 -19.56,0 -36.94,5.65 -51.99,17.02 -15.04,11.35 -28.8,29.23 -41.25,53.62 -11.95,23.43 -20.85,46.25 -26.69,68.51 -5.9,22.2 -8.79,44.35 -8.79,66.36 0,29.63 6.2,52.5 18.65,68.65 12.4,16.17 29.98,24.19 52.7,24.19 19.35,0 37.3,-5.74 53.81,-17.17 16.46,-11.49 34.77,-31.01 54.89,-58.49l21.49 16.86z"/>
    <path class="fil0" d="M14682.68 11376.28l78.2 -247.47c2.39,-8.33 4.27,-15.96 5.68,-22.78 1.48,-6.8 2.2,-11.99 2.2,-15.59 0,-8.85 -3.11,-14.79 -9.35,-17.93 -6.21,-3.12 -24.15,-4.64 -53.77,-4.64l6.45 -26.58 126.59 -7.87 -19.37 95.39c21.3,-30.59 43.5,-54.28 66.73,-71 23.18,-16.71 45.27,-25.1 66.32,-25.1 22,0 39.28,7.02 51.84,20.99 12.55,13.97 18.79,33.38 18.79,58.28 0,1.18 -0.09,3.05 -0.36,5.55 -0.19,2.49 -0.35,4.47 -0.35,5.94 22.51,-29.16 45.33,-51.63 68.5,-67.28 23.24,-15.65 45.08,-23.48 65.66,-23.48 20.53,0 37.45,6 50.71,17.94 13.32,11.94 19.93,27.03 19.93,45.18 0,6.71 -1.06,15.5 -3.2,26.37 -2.18,10.87 -5.28,22.41 -9.35,34.61l-49.14 150.62c-1.68,4.78 -3.05,9.55 -4.11,14.33 -1.08,4.78 -1.64,8.49 -1.64,11.13 0,5.29 1.33,9.24 3.97,11.99 2.64,2.8 6.71,4.17 12.2,4.17 9.29,0 20.99,-7.06 34.96,-21.19 13.96,-14.08 31.86,-36.94 53.61,-68.51l21.54 14.03c-25.36,39.7 -47.97,67.94 -67.78,84.82 -19.87,16.81 -39.94,25.25 -60.27,25.25 -16.73,0 -30.55,-5.18 -41.42,-15.59 -10.87,-10.43 -16.31,-23.48 -16.31,-39.3 0,-6.44 0.87,-13.76 2.69,-22.05 1.77,-8.23 5.54,-20.47 11.27,-36.73l43.05 -127.66c2.84,-8.13 5.09,-15.91 6.66,-23.33 1.52,-7.42 2.29,-13.61 2.29,-18.64 0,-9.1 -2.8,-16.27 -8.39,-21.55 -5.64,-5.24 -13.37,-7.88 -23.18,-7.88 -13.36,0 -27.89,5.44 -43.54,16.32 -15.65,10.87 -31.97,26.98 -48.94,48.22 -29.22,36.39 -54.17,94.12 -74.95,173.24l-0.77 2.54 -17.52 65.24 -62.41 0c4.98,-15.03 11.95,-37.55 20.78,-67.42 3.81,-12.91 6.71,-22.47 8.59,-28.66l40.91 -137.36c2.13,-6.71 3.71,-13.17 4.68,-19.37 0.92,-6.25 1.42,-12.35 1.42,-18.29 0,-11.24 -2.7,-19.83 -8.09,-25.67 -5.38,-5.84 -13.2,-8.79 -23.47,-8.79 -30.4,0 -60.43,21.39 -90.2,64.18 -29.78,42.84 -54.57,101.55 -74.46,176.14l-17.52 65.24 -66.36 0z"/>
    <path class="fil0" d="M15554.54 11293.46c-22.46,30.84 -45.47,54.43 -69,70.83 -23.59,16.37 -46.6,24.55 -69.06,24.55 -22.47,0 -39.7,-5.64 -51.63,-16.86 -11.99,-11.24 -17.95,-27.35 -17.95,-48.39 0,-5.73 1.12,-14.02 3.41,-24.75 2.28,-10.77 5.19,-21.9 8.79,-33.38l45.53 -136.65c2.89,-8.08 5.09,-15.71 6.66,-22.78 1.53,-7 2.34,-12.24 2.34,-15.59 0,-8.85 -3.3,-14.79 -9.91,-17.93 -6.55,-3.12 -23.84,-4.64 -51.78,-4.64l6.45 -26.58 138.79 -7.87 -78.56 242.1c-3.57,10.77 -6.01,19.41 -7.33,26.02 -1.32,6.55 -1.98,13.06 -1.98,19.52 0,8.12 3.1,14.73 9.31,19.7 6.24,5.03 14.57,7.58 25.09,7.58 29.43,0 58.5,-20.99 87.16,-62.97 28.7,-41.98 55.49,-102.75 80.33,-182.37l19.72 -61.71 66.01 0c-29.41,76.28 -52.08,139.75 -67.94,190.48 -15.9,50.65 -23.88,84.86 -23.88,102.55 0,7.17 1.27,12.34 3.76,15.44 2.54,3.1 6.4,4.63 11.68,4.63 8.6,0 19.52,-6.92 32.78,-20.78 13.32,-13.88 30.55,-36.6 51.83,-68.15l19.73 14.03c-21.75,36.33 -42.74,63.62 -62.92,81.91 -20.22,18.29 -39.63,27.44 -58.28,27.44 -15.81,0 -28.76,-5.29 -38.92,-15.8 -10.17,-10.48 -15.26,-24.13 -15.26,-40.86 0,-4.32 0.36,-9.19 1.07,-14.69 0.76,-5.54 2.03,-13.52 3.96,-24.03z"/>
    <path class="fil0" d="M15782.97 11376.28l75.72 -247.47c2.85,-9.31 5.03,-17.13 6.61,-23.48 1.58,-6.3 2.33,-11.29 2.33,-14.89 0,-8.85 -3.14,-14.79 -9.5,-17.93 -6.36,-3.12 -24.55,-4.64 -54.68,-4.64l6.81 -26.58 139.5 -7.87 -45.54 149.55 132.33 0 43.75 -141.68 61.69 0 -55.58 180.05c-10.53,34.21 -17.6,58.65 -21.15,73.34 -3.6,14.74 -5.39,26.27 -5.39,34.61 0,7.42 1.17,12.7 3.56,15.79 2.39,3.1 6.36,4.68 11.84,4.68 8.65,0 19.56,-6.96 32.84,-20.83 13.26,-13.82 30.53,-36.53 51.83,-68.1l19.71 13.98c-23.93,39.43 -45.48,67.59 -64.74,84.45 -19.25,16.83 -39.03,25.27 -59.36,25.27 -16.5,0 -29.93,-5.3 -40.34,-15.96 -10.42,-10.62 -15.61,-24.44 -15.61,-41.42 0,-8.13 1.02,-17.33 3.06,-27.6 2.03,-10.31 5.44,-22.86 10.2,-37.64l15.46 -50.22 -133.09 0 -49.09 164.59 -63.17 0z"/>
    <path class="fil0" d="M16434.31 11326.44c-15.82,19.87 -33.44,35.11 -52.92,45.73 -19.51,10.62 -39.53,15.96 -60.06,15.96 -30.59,0 -55.8,-11.48 -75.51,-34.46 -19.72,-22.91 -29.57,-52.34 -29.57,-88.21 0,-29.18 5.13,-58.15 15.4,-86.95 10.31,-28.81 24.73,-55.19 43.39,-79.07 17.73,-22.71 37.29,-40.05 58.84,-52.04 21.49,-11.95 43.96,-17.89 67.44,-17.89 21.95,0 40.49,5.94 55.6,17.89 15.03,11.99 25.91,29.33 32.61,52.04l21.86 -58.15 58.84 0 -16.87 45.6c-19.35,53.56 -35.21,103.5 -47.51,149.91 -12.35,46.39 -18.5,75.51 -18.5,87.5 0,7.63 1.27,13.42 3.76,17.38 2.54,3.97 6.4,5.9 11.7,5.9 7.87,0 18.39,-7.88 31.55,-23.63 13.16,-15.8 28.1,-38.52 44.83,-68.15l21.13 12.55c-21.75,40.65 -42.08,70.19 -60.93,88.58 -18.9,18.39 -38.26,27.6 -58.13,27.6 -15.3,0 -26.94,-4.28 -34.96,-12.92 -7.98,-8.59 -11.99,-21.04 -11.99,-37.29l0 -7.88zm-151.35 -50.92l0 0c0,22.97 5.49,40.8 16.46,53.6 11.04,12.82 26.08,19.22 45.23,19.22 17.19,0 33.19,-5.9 48.03,-17.58 14.84,-11.74 27.74,-28.57 38.72,-50.56 10.32,-20.33 18.95,-44.58 26.02,-72.62 7.07,-28.1 10.58,-51.73 10.58,-70.85 0,-21.99 -5.3,-39.22 -15.96,-51.67 -10.62,-12.41 -25.26,-18.66 -43.92,-18.66 -16.5,0 -32.21,5.9 -47.16,17.58 -14.94,11.74 -28.39,28.62 -40.34,50.57 -11.03,20.58 -20.02,44.1 -27.08,70.68 -7.07,26.54 -10.58,49.96 -10.58,70.29z"/>
    <path class="fil0" d="M16862.13 11213.11l-43.39 0c-18.15,0 -33.59,4.22 -46.25,12.7 -12.71,8.5 -23.42,21.96 -32.27,40.36 -3.1,6.25 -7.42,15.44 -12.91,27.64 -26.58,59.3 -57.78,88.93 -93.6,88.93 -16.01,0 -28.67,-3.4 -37.86,-10.22 -9.2,-6.8 -13.82,-16.05 -13.82,-27.79 0,-12.2 3.5,-22.26 10.42,-30.13 6.96,-7.88 15.54,-11.85 25.81,-11.85 12.7,0 23.07,5.94 31.2,17.79 8.13,11.79 13.16,17.73 15.09,17.73 8.85,0 20.53,-17.07 35.12,-51.27 5.99,-13.87 10.87,-24.74 14.74,-32.68 6.19,-13.36 14.48,-24.03 24.9,-32.06 10.41,-8.03 23.38,-13.66 38.92,-17.03 -27.74,-0.7 -48.73,-6.96 -62.95,-18.64 -14.24,-11.74 -21.35,-28.81 -21.35,-51.33 0,-30.33 10.87,-55.79 32.67,-76.38 21.75,-20.52 49.24,-30.85 82.48,-30.85 17.18,0 33.58,3.41 49.15,10.23 15.48,6.85 31.19,17.42 46.95,31.75l8.99 -28.72 58.08 0 -55.23 179.34c-9.81,32.07 -16.67,56.06 -20.63,72.12 -3.91,16 -5.91,28.2 -5.91,36.54 0,7.42 1.17,12.7 3.56,15.79 2.39,3.1 6.36,4.68 11.84,4.68 8.65,0 19.56,-6.96 32.84,-20.83 13.26,-13.82 30.53,-36.53 51.83,-68.1l19.71 13.26c-22.45,38.01 -43.6,65.76 -63.31,83.19 -19.72,17.44 -39.49,26.17 -59.36,26.17 -15.75,0 -28.61,-5.24 -38.52,-15.75 -9.96,-10.52 -14.89,-24.03 -14.89,-40.55 0,-8.13 1.02,-17.33 3.05,-27.6 2.04,-10.31 5.43,-22.86 10.21,-37.64l14.69 -48.8zm-17.93 -21.9l0 0 24.38 0 30.14 -96.81c-13.62,-10.52 -26.07,-18.19 -37.29,-22.97 -11.24,-4.78 -22.37,-7.15 -33.34,-7.15 -20.33,0 -37.91,8.02 -52.75,24.02 -14.79,16.01 -22.21,34.92 -22.21,56.66 0,16.73 6.19,28.62 18.66,35.68 12.39,7.07 33.94,10.57 64.53,10.57l7.88 0z"/>
   </g>
   <path class="fil0" d="M4994.68 9130.25l-203.52 464.9 85.57 30.03c104.37,-282.25 326.76,-361.82 451.09,-384.27 19.15,-3.88 38.93,-6.46 59.37,-7.71 18.26,-1.33 29.58,-1.21 29.58,-1.21 36.24,0 62.24,5.23 78.06,15.59 15.79,10.43 23.7,27.6 23.7,51.48 0,6.21 -1.34,16.21 -4.04,30.09 -2.71,13.87 -7.52,35.48 -14.46,64.74l-311.07 1216.57 0 2.3c-17.73,73.26 -54.73,111.38 -111.02,114.48l-167.67 9.25 -24.29 104.08 806.02 0 6.93 -104.08 -99.45 -2.34c-67.84,-1.51 -111.41,-6.91 -130.67,-16.16 -19.27,-9.25 -28.9,-26.21 -28.9,-50.86 0,-10.02 1.15,-22.16 3.47,-36.44 2.31,-14.28 6.93,-35.27 13.86,-63.01l312.26 -1216.58c13.86,-53.21 29.65,-85.94 47.41,-98.28 17.71,-12.35 46.24,-18.5 85.55,-18.5 106.04,0 236.44,53.53 277.58,158.66 15.61,39.9 20.52,83.34 21.85,125.86 1.25,39.96 -7.78,83.15 -3.37,122.54l97.14 1.18 94.83 -512.31 -1395.81 0z"/>
   <path class="fil0" d="M7432.08 9726.05c-61.41,-75.85 -143.35,-113.85 -245.84,-113.85 -68.07,0 -133.58,19.96 -196.55,59.8 -59.5,37.64 -118.82,94.11 -177.95,168.07 2.93,-27.3 22.26,-263.64 -189.22,-263.64 -135.61,0 -234.33,99.77 -309.21,201.45 27.38,-19.65 60.3,-30.44 93.55,-35.84 48.52,-7.86 119.84,-20.06 157.39,21.28 26.01,28.66 30.58,72.04 31.07,108.98 1.15,88.56 -23.44,176.32 -46.29,261.13 -1.86,6.89 -3.75,13.78 -5.53,20.7 -52.23,201.91 -104.45,403.81 -156.68,605.72 -35.49,137.2 -70.97,274.41 -106.46,411.6 -0.3,1.14 -0.59,2.28 -0.89,3.4 -4.51,17.18 -8.98,31.19 -13.4,43.7 -2.2,15.59 -8.91,28.87 -19.16,40.08 -1.27,1.68 -2.56,3.98 -3.81,5.25 -0.58,0.59 -1.48,0.83 -2.08,1.37 -68.3,61.97 -245.1,55.56 -245.1,55.56l-11.31 55.47c31.34,0 62.69,0 94.03,0 71.77,0 143.51,0 215.28,0 78.72,0 157.44,0 236.17,0 58.31,0 116.6,0 174.9,0l8.88 -45.7c-54.23,-1.31 -111.52,-9.58 -162.16,-29.28 -39.48,-15.35 -77.78,-40.53 -73.93,-87.72 4.02,-49.07 18.69,-96.7 30.45,-144.33 8.45,-34.24 13.72,-55.52 22.18,-89.76 18.38,-74.48 36.78,-148.95 55.17,-223.43 4.5,-18.23 9,-36.45 13.5,-54.67 0.82,-3.32 6.77,-17.55 5.13,-20.78 32.07,63.55 73.92,112.12 125.56,145.59 51.63,33.48 110.69,50.25 177.18,50.25 74.32,0 148.65,-22.24 222.98,-66.79 74.31,-44.48 142.74,-107.47 205.34,-188.85 59.46,-78.87 105.79,-170.19 139.05,-274.1 33.25,-103.84 49.89,-208.81 49.89,-314.76 0,-128.05 -30.71,-230 -92.13,-305.9zm-628.03 123.28l0 0c-0.9,1.15 -1.8,2.1 -2.7,3.25l-0.19 -0.69 2.89 -2.56zm467.28 412.82l0 0c-24.65,94.96 -57.33,182.32 -97.98,262.01 -39.13,77.98 -83.15,136.71 -132.03,176.13 -48.89,39.46 -101.49,59.12 -157.82,59.12 -67.31,0 -119.1,-21.79 -155.49,-65.49 -36.37,-43.65 -54.57,-105.31 -54.57,-185.07 0,-71.2 13.09,-157.05 39.32,-257.54 26.2,-100.43 58.86,-188.42 97.98,-263.91 39.1,-75.46 83.5,-132.92 133.19,-172.32 49.66,-39.4 103.05,-59.13 160.17,-59.13 64.91,0 115.2,22.46 150.79,67.41 35.6,44.93 53.39,108.53 53.39,190.75 0,70.42 -12.31,153.09 -36.95,248.04z"/>
   <path class="fil0" d="M14439.56 10714.18c-21.69,-2.61 -41.82,-9.7 -57.55,-24.42 -37.55,-35.11 -47.72,-94.5 -46.27,-143.57 3.36,-114.85 55.57,-225.39 88.21,-333.86 15.68,-52.07 31.02,-104.27 47.04,-156.25 13.3,-43.19 23.51,-84.11 30.52,-122.73 7.02,-38.57 10.52,-69.69 10.52,-93.44 0,-64.45 -21.66,-117.89 -65.07,-160.3 -43.43,-42.38 -98.81,-63.54 -166.05,-63.54 -67.25,0 -138.92,27.76 -214.72,83.26 -75.91,55.56 -150.62,135.03 -224.16,238.49 0,-5.09 0.39,-12.08 1.18,-21.02 0.77,-8.88 1.17,-15.43 1.17,-19.66 0,-88.21 -20.53,-157.12 -61.6,-206.69 -41.05,-49.63 -97.58,-74.38 -169.56,-74.38 -68.84,0 -141.22,29.66 -217.07,89.02 -75.91,59.35 -148.64,143.3 -218.28,251.79 4.85,-25.89 9.87,-51.74 14.54,-77.66 23.24,-128.55 -10.04,-302.79 -175.65,-302.79 -131.99,0 -237.42,98.02 -308.71,199.95 44.22,-26.14 94.84,-41.35 146.15,-43.92 21.8,-1.09 44.37,0.23 64.12,9.52 29.93,14.1 49.25,44.91 57.47,76.97 22.98,89.59 -4.3,189.78 -29.36,275.75 -24.79,85.06 -49.59,170.15 -74.39,255.21 -44.84,153.84 -89.68,307.67 -134.52,461.51 -2.24,7.68 -4.49,15.37 -6.73,23.05l217.09 0 57.5 -231.49c64.93,-264.53 146.09,-472.67 243.5,-624.47 97.38,-151.74 195.77,-227.65 295.1,-227.65 33.63,0 59.28,10.4 76.87,31.14 17.61,20.8 26.4,51.08 26.4,90.93 0,21.25 -1.58,42.87 -4.69,64.89 -3.13,22.07 -8.2,44.93 -15.24,68.68l-133.79 487.1c-6.26,22.08 -15.65,56.01 -28.15,101.78 -28.96,105.97 -51.65,185.67 -68.06,239.09l204.16 0 57.5 -231.49 2.34 -8.88c68.08,-280.64 149.8,-485.42 245.25,-614.31 55.55,-75.45 108.98,-132.46 160.13,-171.08 51.26,-38.56 98.8,-57.85 142.64,-57.85 32.07,0 57.23,9.34 75.7,27.95 18.35,18.68 27.53,44.11 27.53,76.35 0,17.77 -2.57,39.84 -7.63,66.11 -5.06,26.33 -12.27,53.89 -21.65,82.67 -43.43,139.54 -86.84,279.08 -130.25,418.62 -24.03,77.21 -51.02,155.09 -54.83,236.66 -1.96,41.92 5.1,85.7 28.95,120.23 65.56,94.87 228.7,96.37 320.43,45.22 60.28,-33.62 115.81,-83.43 157.91,-138.22 -9.28,12.08 -46.45,15.74 -59.49,18.25 -31.48,6.05 -71.05,13.73 -106.45,9.48z"/>
   <path class="fil0" d="M8630.75 10511.21c2.26,-26.39 6.52,-50.24 11.21,-67.58 72.82,-269.52 162.79,-534.13 256.34,-797.06l-215.94 0 -64.53 218.77c-81.38,282.36 -168.96,497.92 -262.85,646.7 -93.87,148.85 -188.92,223.24 -285.14,223.24 -34.43,0 -61.81,-8.9 -82.15,-26.73 -20.35,-17.76 -30.5,-41.13 -30.5,-69.92 0,-22.91 2.14,-45.99 6.44,-69.36 4.31,-23.3 12.32,-54.05 24.06,-92.16 0,0 181.72,-607.13 182.13,-608.47 39.69,-132.61 4.5,-292.21 -159.63,-292.21 -146.31,0 -252.53,118.89 -308.75,201.64 0,0 38.8,-42.29 181.91,-42.29 51.56,0 76.35,40.92 87.23,93.01 -0.74,11.71 -2.77,26.74 -6.95,47.33 -5.08,25.03 -12.33,51.97 -21.71,80.76l-149.02 484.58c-11.73,40.74 -21.33,80.14 -28.75,118.31 -7.45,38.12 -11.14,67.41 -11.14,87.75 0,74.61 19.54,131.85 58.65,171.7 39.12,39.84 95.45,59.74 168.98,59.74 73.53,0 148.82,-29 225.89,-87.07 77.05,-58.07 152.35,-141.86 225.88,-251.23 -6.21,37.03 -10.46,65.21 -12.82,84.69 -7.55,62.4 3.97,141.86 50.57,187.53 67.1,65.76 183.16,57.28 260.76,16.9 44.9,-23.36 84.86,-55.89 120.63,-91.47 15.3,-15.2 25.45,-34.73 42.1,-48.73 -11.96,10.06 -48.59,11.75 -64.08,14.73 -22.92,4.4 -46.06,7.73 -69.4,8.71 -33.6,1.41 -65.7,0.5 -90.79,-24.58 -43.28,-43.29 -43.44,-120.67 -38.63,-177.23z"/>
   <path class="fil0" d="M10755.98 10608.46c-1.9,-30.22 1.89,-61.73 7.53,-86.64 18.02,-79.67 42.86,-158.45 65.09,-236.81l181.91 -638.44 -201.84 0 -143.17 502.35 -433 0c27.2,-96.78 59.69,-193.74 83.63,-291.09 31.48,-128.04 -37.55,-281.4 -182.85,-281.4 -146.31,0 -252.53,118.89 -308.74,201.64 13.26,-14.33 36.49,-21.53 54.4,-26.92 50.36,-15.15 141.71,-35.04 182.4,7.35 11.91,12.4 19.9,28.07 25.74,44.22 19.08,52.87 11.26,101.84 -3.61,154.16l-247.59 877.59 206.52 0 160.76 -583.77 435.35 0 -50.46 178.07c-26.63,89.48 -66.59,208.09 -31.45,299.65 22.33,58.2 79.64,112.54 140.74,127.04 34.94,8.31 72.07,3.75 105.95,-8.17 53.54,-18.82 101.38,-53.82 142.79,-92.01 19.95,-18.43 41.4,-55.52 64.43,-68.83 0,0 -46.62,27.1 -165.87,27.1 -63.26,0 -85.23,-50.46 -88.66,-105.09z"/>
   <path class="fil0" d="M12282.08 10707.71c-43.74,-17.2 -64.07,-71.82 -70.23,-115.53 -3.87,-27.39 -4.04,-54.46 -1.68,-81.26 6.87,-77.83 35.26,-153.39 57.41,-228.09 18.7,-63.15 38.3,-126.02 58.45,-188.69 22.69,-70.53 46.08,-140.81 69.96,-210.92 13.37,-39.23 26.9,-78.4 40.54,-117.52 4.07,-11.7 35.25,-119.13 41.97,-119.13l-215.94 0 -64.53 218.77c-81.37,282.36 -168.96,497.92 -262.83,646.7 -93.88,148.85 -188.94,223.24 -285.16,223.24 -34.43,0 -61.81,-8.9 -82.15,-26.73 -20.34,-17.76 -30.5,-41.13 -30.5,-69.92 0,-22.91 2.14,-45.99 6.44,-69.36 4.31,-23.3 12.32,-54.05 24.06,-92.16 46.41,-155.03 92.81,-310.06 139.22,-465.09 26.98,-90.16 69.28,-187.45 46.8,-284.47 -20.72,-89.4 -88.04,-151.12 -181.52,-151.12 -128.79,0 -237.85,94.89 -305.52,197.16 47.22,-20.42 90.16,-33.38 142.75,-37.13 22.85,-1.62 46.73,-2.48 67.61,6.9 24.95,11.2 41.94,35.73 50.26,61.78 32.63,102.02 -22.2,206.47 -51.58,302.04 -27.82,90.42 -55.61,180.83 -83.43,271.23 -6.46,21.02 -12.93,42.03 -19.39,63.05 -11.72,40.74 -21.31,80.14 -28.75,118.31 -7.44,38.12 -11.13,67.41 -11.13,87.75 0,74.61 19.54,131.85 58.66,171.7 39.11,39.84 95.45,59.74 168.99,59.74 73.53,0 148.81,-29 225.87,-87.07 77.05,-58.07 152.36,-141.86 225.89,-251.23 -6.26,37.33 -10.54,65.72 -12.89,85.24 -12.89,107.19 38.93,219.62 155.53,236.81 125.02,18.44 251.89,-83.46 323.24,-176.26 -9.11,11.83 -45.44,15.5 -58.21,18 -43.69,8.54 -95.11,20.19 -138.21,3.26z"/>
   <path class="fil0" d="M17314.23 10733.14c-31.83,-3.37 -61.11,-14.75 -81.77,-42.13 -17.24,-22.86 -26.3,-50.96 -31.07,-79.2 -17.03,-100.42 17.96,-195.08 45.41,-289.91 52.03,-179.74 126.14,-404.88 222.35,-675.33l-215.9 0 -64.51 218.77c-81.38,282.36 -168.98,497.92 -262.88,646.7 -93.86,148.85 -188.9,223.24 -285.12,223.24 -34.44,0 -61.82,-8.9 -82.15,-26.73 -20.37,-17.76 -30.51,-41.13 -30.51,-69.92 0,-22.91 2.16,-45.99 6.44,-69.36 4.28,-23.3 12.32,-54.05 24.07,-92.16 52.8,-176.38 105.58,-352.75 158.37,-529.12 20,-66.85 27.6,-142.44 15.94,-211.51 -15.85,-94.08 -79.24,-160.05 -176.99,-160.05 -133.26,0 -227.29,98.24 -304.97,194.64 37.26,-26.53 84.03,-32.01 128.63,-35.2 31.43,-2.24 65.3,-3.29 91.76,13.81 18.6,12.03 31.12,31.84 38.26,52.82 35.14,103.18 -15.31,211.3 -44.91,308.95 -33.37,110.07 -64.52,220.85 -100.9,330.01 -11.71,40.74 -21.3,80.14 -28.72,118.31 -7.48,38.12 -11.19,67.41 -11.19,87.75 0,74.61 19.54,131.85 58.68,171.7 39.14,39.84 95.45,59.74 168.98,59.74 73.53,0 148.82,-29 225.92,-87.07 77.03,-58.07 152.33,-141.86 225.86,-251.23 -6.25,37.33 -10.57,65.72 -12.89,85.24 -9.4,77.15 2.21,168.28 68.56,218.55 84.91,64.34 210.17,32.58 293.76,-16.88 38.16,-22.58 73.46,-50.09 105.97,-80.21 12.05,-11.17 26.77,-34.36 41.29,-41.85 -22.87,11.8 -51.14,15.97 -76.16,19.77 -33.87,5.14 -73.4,11.69 -109.61,7.86z"/>
   <path class="fil0" d="M3742 9960.32c-23.6,-101.43 -11.25,-170.09 -11.25,-170.09 52.04,121.96 71.55,234.17 71.55,234.17 133.33,-243.94 -94.33,-569.18 -94.33,-569.18 -218.16,270.25 -115.05,504.58 -53.7,600.71 25.5,39.96 42.82,84.32 51.48,130.93 139.2,749.25 -158.65,1195.96 -199.42,1255.54 -12.42,18.17 -30.53,23.98 -49.81,23.52 59,-268.45 133.93,-594.1 49.81,-709.76 0,0 -125.04,190.07 -78.33,704.57 -42.24,-14.16 -72.24,-55.39 -75.45,-101.79 -10.48,-152.02 -28.52,-315.91 -46.98,-461.41 -10.69,-84.33 -32.88,-166.19 -55.86,-248.03 -25.74,-91.7 -6.81,-186.05 -6.81,-186.05 43.91,69.93 71.55,204.9 71.55,204.9 125.99,-264.04 -84.56,-546.39 -84.56,-546.39 -65.89,113.71 -101.19,196.87 -117.11,262.19 -62.26,-249.85 -161.41,-768.67 -22.74,-1127.31 188.63,-487.85 347.61,-809.83 347.61,-809.83 0,0 -546.01,539.88 -620.81,917.16 -63.07,318.11 172.18,839.62 287.12,1070.15 -10.32,100.26 32.72,153.58 70.64,227.53 65.04,126.84 26.02,289.45 26.02,289.45 -46.34,-74.34 -110.11,-156.61 -176.89,-235.6 -68.16,-80.61 -146.71,-151.81 -233.31,-212.2 -69.15,-48.21 -100.42,-144.12 -100.42,-144.12 120.33,58.53 185.38,122.02 185.38,122.02 6.51,-238.99 -370.75,-424.49 -370.75,-424.49 -33.8,405.46 126.06,501.96 222.17,523.76 56.92,12.91 111.93,35.29 156.02,73.52 429.8,372.81 306.96,898.79 306.96,898.79l403.28 0c236.49,-296.93 234.85,-891.75 198.12,-1307.96 -8.48,-96.19 -27.29,-190.64 -49.18,-284.7z"/>
   <path class="fil0" d="M15753.72 10599.79l0.14 -0.85c-1.05,-3.35 -2.57,-6.76 -3.23,-10.06 -19.74,-98.01 -15.55,-224.7 -85.63,-303.87 -45.01,-50.86 -115.19,-81.38 -210.64,-91.54 34.4,-10.18 65.9,-30.08 94.46,-59.8 28.57,-29.62 65.91,-85.19 112.06,-166.61l14.07 -26.73c81.38,-150.9 146.3,-226.35 194.82,-226.35 15.63,0 27.18,2.13 34.6,6.37 7.44,4.25 11.14,11.01 11.14,20.34 0,4.25 -6.08,16.54 -18.2,36.9 -12.11,20.34 -18.15,41.96 -18.15,64.83 0,33.92 11.49,61.09 34.59,81.43 23.06,20.35 54.15,30.51 93.29,30.51 38.32,0 69.41,-13.57 93.28,-40.68 23.88,-27.16 35.8,-62.33 35.8,-105.57 0,-55.11 -20.12,-100.5 -60.45,-136.11 -40.27,-35.59 -92.87,-53.43 -157.79,-53.43 -61.05,0 -113.86,18.06 -158.4,54.05 -44.61,36.05 -96.64,107.93 -156.1,215.57l-9.38 16.55c-99.37,178.91 -187.76,268.39 -265.21,268.39l-62.19 0c6.03,0 33.98,-123.22 36.74,-132.54 19.47,-65.77 40.54,-133.18 53.9,-200.55 25.62,-129.23 -23.17,-263.61 -173.81,-263.61 -131.97,0 -230.09,99.64 -305.25,197.47 53.96,-22.47 101.74,-36.07 162.16,-37.45 18.14,-0.43 37.08,-0.3 53.26,7.92 77.66,39.41 46.41,149.66 28.66,212.51l-247.56 877.59 206.52 0 163.1 -578.68 77.46 0c83.69,0 140.99,12.29 171.87,36.88 30.89,24.6 46.35,66.12 46.35,124.64 0,90.24 -28.2,180.09 -5.84,269.78 16.34,65.49 59.21,123.74 116.29,159.58 59.43,37.31 135.99,34.67 201,14.64 44.44,-13.69 86.51,-35.7 123.55,-63.79 38.53,-29.2 76.23,-66.15 100.83,-108.3 -280.41,157.47 -322.11,-89.43 -322.11,-89.43z"/>
  </g>
 </g>
</svg>
