<?xml version="1.0" encoding="UTF-8"?>
<!DOCTYPE svg PUBLIC "-//W3C//DTD SVG 1.1//EN" "http://www.w3.org/Graphics/SVG/1.1/DTD/svg11.dtd">
<!-- Creator: CorelDRAW 2018 (64-Bit) -->
<svg xmlns="http://www.w3.org/2000/svg" xml:space="preserve" width="200mm" height="200mm" version="1.1" style="shape-rendering:geometricPrecision; text-rendering:geometricPrecision; image-rendering:optimizeQuality; fill-rule:evenodd; clip-rule:evenodd"
viewBox="0 0 20000 20000"
 xmlns:xlink="http://www.w3.org/1999/xlink">
 <defs>
  <style type="text/css">
   <![CDATA[
    .fil0 {fill:#454545;fill-rule:nonzero}
   ]]>
  </style>
 </defs>
 <g id="Слой_x0020_1">
  <metadata id="CorelCorpID_0Corel-Layer"/>
  <g id="_2049382506064">
   <path class="fil0" d="M5707.23 10984.8l-0.02 0c-55.33,19.65 -110.73,37.28 -164.76,52.22 -10.31,2.89 -20.63,5.57 -30.94,8.21 -1.06,-5.48 -3.62,-10.61 -7.48,-14.9 -5.56,-6.15 -13.19,-9.79 -21.48,-10.19 -22.29,-1.09 -95.66,-44.64 -150.25,-84.66 -13.88,-10.02 -33.34,-7.06 -43.43,6.79 -10.13,13.8 -7.1,33.29 6.72,43.49 14.14,10.32 76.64,55.25 129.81,79.92 -50.4,10.84 -100.99,19.72 -150.02,26.41l-1.88 -0.07 -1.25 0.23c-141.18,24.69 -187.18,-158.77 -189.03,-166.58 -3.97,-16.53 -20.9,-27.02 -37.51,-23.03 -16.62,4.05 -26.97,20.82 -23.04,37.4 12.48,52.57 43.72,120.62 95.46,166.41 -39.43,1.87 -77.98,2.68 -114.52,2.05 -238.29,-45.44 -209.93,-311.43 -208.62,-322.72 0.97,-8.2 -1.31,-16.36 -6.41,-22.91 -5.13,-6.51 -12.52,-10.66 -20.73,-11.64 -8.44,-1.07 -16.38,1.26 -22.92,6.34 -6.52,5.13 -10.69,12.54 -11.68,20.68 -0.25,2.17 -21.71,203.91 107.21,319.53 -65.99,-7.58 -130.81,-19.16 -192.94,-34.37 -170.93,-46.3 -167.86,-331.16 -167.84,-334 0.35,-17.11 -13.3,-31.36 -31.09,-31.76 -16.78,0 -30.73,13.69 -31.06,30.45 -0.15,7.46 -2.4,170.67 71.73,287.08 -50.45,-18.54 -99.68,-39.8 -145.53,-62.6 -167.31,-140.75 -150.38,-423.05 -150.18,-425.89 0.56,-8.26 -2.12,-16.25 -7.58,-22.52 -5.45,-6.27 -13.01,-10.03 -21.33,-10.61 -16.76,-1.64 -31.99,11.75 -33.13,28.79 -0.59,8.28 -12.62,189.78 69.33,347.29 -47.12,-31.3 -92.41,-65.79 -134.71,-102.56 -189.91,-196.49 -104.85,-432.74 -101.15,-442.65 6.07,-15.97 -2.05,-33.92 -18.05,-40.03 -7.78,-2.96 -16.22,-2.73 -23.8,0.7 -7.56,3.41 -13.33,9.58 -16.28,17.27 -0.56,1.43 -48.91,133.67 -9.55,288.62 -9.54,-11.91 -18.55,-23.6 -27.13,-35.16 -38.72,-52.18 -70.63,-105.64 -96.7,-161.17 -37.67,-193.98 39.68,-289.53 40.44,-290.45 11.12,-12.99 9.66,-32.67 -3.25,-43.84 -13,-11.22 -32.69,-9.79 -43.81,3.15 -1.94,2.21 -40.96,47.88 -58.15,138.69 -6.12,-27.83 -11.2,-56.27 -15.31,-85.63 4.93,-158.42 110.06,-233.73 114.43,-236.8 6.86,-4.62 11.48,-11.69 13.04,-19.84 1.53,-8.14 -0.17,-16.42 -4.84,-23.32 -9.61,-14.13 -28.99,-17.84 -43.13,-8.25 -2.42,1.65 -52.09,35.55 -92.06,105.96 -0.31,-20.98 -0.34,-42.52 -0.09,-64.42 1.77,-138.92 17.19,-265.81 44.95,-374.75l1.34 -3.83c4.65,-17.9 9.6,-35.56 14.93,-52.78l-0.1 -0.05 0.68 -1.66c17.52,-56.04 39.6,-110.02 65.57,-160.47 2.67,-1.82 4.97,-4.06 6.89,-6.55 3.95,-5.13 6.12,-11.52 6.24,-18.14 43.04,-77.41 96.73,-146.74 159.64,-206.03 367.32,-345.9 935.64,-300.41 1347.68,-201.44 306.11,73.53 537.55,228.13 687.98,459.58 142.95,219.81 227.81,489.4 245.37,779.57 1.09,17.32 15.81,29.52 32.92,29.17 8.29,-0.51 15.91,-4.2 21.4,-10.43 5.51,-6.22 8.27,-14.19 7.79,-22.52 -18.25,-300.82 -106.53,-580.83 -255.34,-809.76 -159.29,-245.08 -403.43,-408.64 -725.57,-486.04 -427.1,-102.61 -1017.48,-148.28 -1404.9,216.68 -62.65,58.99 -116.63,126.72 -160.56,201.51 -62.4,-48 -133.45,-103.81 -206.27,-162.06 -127.3,-101.81 -254.2,-211.74 -399.37,-345.87 -50.53,-46.68 -95.23,-95.66 -142.9,-147.98l-24.21 -26.51c-44.63,-48.75 -115.71,-79.76 -184.98,-77.82l-15.37 0.17c-80.26,1.25 -125.93,-6.37 -137.21,-48.62 -4.53,-17.04 1.39,-23.89 7.1,-27.93 19.18,-13.8 64.47,-13.24 98.78,9.63 11.55,7.58 26.43,6.67 37.15,-2 10.49,-8.77 14.05,-23.71 8.57,-36.31 -5.29,-12.14 -54.47,-119.14 -140.48,-136.81 -44.61,-8.79 -88.31,6.67 -130.41,46.56 -34.96,33.18 -51,72.23 -47.61,116.13 8.91,114.64 154.72,219.7 171.4,231.33l1047.95 723.76c-8.81,20.91 -17.38,43.67 -26.05,69.03 -92.1,-35.34 -184.33,-71.76 -281.61,-111.21 -99.8,-40.48 -180.37,-74.28 -253.51,-106.43 -30.53,-13.46 -70.72,-31.36 -110.99,-50.52 -9.55,-4.62 -19.07,-9.86 -28.73,-15.16 -28.31,-15.62 -67.07,-36.93 -110.82,-36.93 -0.06,0 -0.15,0 -0.2,0 -45.27,1.02 -89.56,17.77 -127.52,33.39 -21.93,9.07 -50.06,8.72 -69.95,-0.73 -13.12,-6.27 -21.38,-15.62 -25.2,-28.46 -0.46,-1.42 -0.55,-2.27 -0.56,-2.5 9.51,-11.28 58.79,-18.7 95.39,-14.82 13.39,1.54 25.62,-5.48 31.36,-17.16 5.76,-11.75 3.51,-26 -5.59,-35.35 -3.12,-3.19 -77.13,-78.5 -157.28,-68.57 -40.59,5.13 -73.94,29.87 -99.09,73.7 -18.55,32.27 -21.23,66.36 -7.74,98.57 41.5,99.19 225,152.32 261.26,161.95l856.63 239.26c-25.57,109.5 -39.37,231.74 -41.01,363.47 -2.06,162.48 7.78,354.47 95.83,545.39 1.04,3.3 2.38,6.04 3.13,6.79 28.52,60.81 62.11,116.97 102.7,171.58 57.57,77.54 124.84,150.21 199.31,215.49l3 3.19c1.46,1.59 2.94,3.13 4.3,4.5 2.52,2.62 5.48,4.74 8.87,6.28 82.6,70.29 174.24,131.28 273.18,182.3 3.64,2.96 7.92,4.89 13.09,5.99 95.19,47.14 197.34,84.48 303.24,110.88l2.58 0.84c1.49,0.46 2.98,0.98 4.68,1.42 2.37,0.58 4.47,0.82 4.16,0.52 115.36,27.88 236.36,43.27 358.09,45.62 1.26,0.16 2.48,0.33 3.74,0.33l1.79 -0.05c4.22,0.05 8.37,0.23 12.58,0.33 6.38,0.23 12.75,0.46 19.17,0.46 173.05,-0.05 350.36,-24.97 527.08,-74.04 55.78,-15.51 112.62,-33.53 168.95,-53.6 16.16,-5.76 24.58,-23.6 18.83,-39.73 -5.76,-16.07 -23.52,-24.57 -39.65,-18.86zm-3000.05 -2442.05l0 0 -0.04 -0.07c-1.38,-0.95 -137.94,-97.36 -144.69,-185.03 -1.89,-24.52 7.41,-46.18 28.39,-66.07 22.46,-21.21 43.92,-31.92 63.99,-31.92 3.76,0 7.43,0.33 11.09,1.13 20,4.05 37.87,18.18 51.99,33.47 -30.91,-1.77 -59.26,5.81 -79.71,20.45 -29.95,21.5 -41.24,56 -30.91,94.52 25.85,97.08 133.39,95.96 198,94.82l14.94 -0.12c0.34,0 0.65,0 1,0 53.26,0 104.74,21.5 137.8,57.64l24.09 26.39c48.29,52.95 93.89,103 146.71,151.8 146.36,135.22 274.32,246.04 402.69,348.72 72.98,58.37 149.11,118.16 215.26,168.96 -0.51,0.98 -0.99,2 -1.49,2.96l-1039.11 -717.65zm-108.11 537.73l0 0c-5.96,-14.24 -4.59,-28.14 4.31,-43.65 15.08,-26.29 32.35,-40.31 52.79,-42.87 2.5,-0.35 5.05,-0.46 7.66,-0.46 8.24,0 17.04,1.53 26.36,4.61 -23.94,6.34 -41.81,16.42 -53.3,30.17 -9.83,11.8 -19.74,31.8 -11.28,60.08 5.95,20.07 16.96,37.05 32.31,50.22 -28.18,-17.84 -50.3,-37.63 -58.85,-58.1zm220.27 125.88l0 0 -0.13 0c-34.09,-8.95 -79.41,-24.91 -120.4,-45.09 33.11,10.95 72.03,9.63 105.18,-3.94 32.94,-13.5 70.93,-28.05 105.43,-28.78 24.66,-0.34 50.34,13.16 77.26,28.05l2.43 1.31c10.66,5.87 21.19,11.68 31.73,16.69 33.57,15.97 69.38,32.27 112.73,51.32 72.16,31.75 153.26,65.84 255.19,107.17 96.42,39.1 188.06,75.36 279.61,110.54l-849.03 -237.27z"/>
   <path class="fil0" d="M5010.18 9015.22c17.11,-0.74 30.45,-15.27 29.74,-32.33 -0.35,-8.72 -3.94,-16.58 -10.11,-22.17 -5.99,-5.42 -14.15,-8.33 -22.16,-7.63 -15.04,0.56 -371,18.51 -586.12,398.58 -4.1,7.24 -5.09,15.63 -2.88,23.6 2.24,7.98 7.45,14.65 14.55,18.65 4.65,2.68 9.98,4.1 15.39,4.1 11.17,0 21.54,-6.05 27.09,-15.8 195.27,-344.94 528.78,-366.67 534.5,-367z"/>
   <path class="fil0" d="M4513.27 9748.33l0.08 0.05c2.82,0.74 5.61,1.14 8.34,1.14 13.87,0 26.18,-9.35 29.94,-22.69 155.31,-551.93 676.72,-592.98 681.97,-593.33 17.09,-1.14 30.1,-15.9 29.01,-33.06 -0.57,-8.6 -4.59,-16.65 -11.09,-22.11 -6.19,-5.24 -13.77,-7.76 -21.89,-6.9 -5.66,0.33 -569.83,41.5 -737.89,638.59 -4.61,16.46 5.05,33.69 21.53,38.31z"/>
   <path class="fil0" d="M4664.96 9988.94l0.11 0.06c2.09,0.4 4.22,0.63 6.28,0.63 14.64,0 27.45,-10.44 30.44,-24.73 121.67,-584.22 733.52,-731.01 739.63,-732.36 8.09,-1.84 14.99,-6.69 19.44,-13.69 4.43,-7.02 5.89,-15.34 4.04,-23.55 -3.83,-16.71 -20.56,-27.08 -37.22,-23.43 -6.57,1.54 -657,157.4 -786.81,780.25 -3.48,16.76 7.29,33.29 24.09,36.82z"/>
   <path class="fil0" d="M4940.3 10314.34l2.48 0.06c16.1,0 29.71,-12.54 30.95,-28.62 62.36,-781.56 744.62,-963.53 751.49,-965.23 8.04,-2 14.79,-7.07 19.07,-14.15 4.27,-7.18 5.5,-15.55 3.45,-23.64 -2.02,-8.11 -7.14,-14.95 -14.32,-19.17 -7.1,-4.26 -15.5,-5.41 -23.33,-3.35 -7.3,1.77 -731.94,188.12 -798.31,1020.64 -1.38,17.09 11.41,32.08 28.52,33.46z"/>
   <path class="fil0" d="M6018.27 9524.58c8.05,2.1 16.44,0.96 23.59,-3.26 7.15,-4.16 12.26,-10.89 14.35,-18.87 4.35,-16.53 -5.55,-33.57 -22.04,-37.96 -15.43,-4.1 -383,-95.66 -688.69,401.21 -123.98,201.41 -164.5,427.14 -117.24,652.83 2.99,14.31 15.77,24.69 30.41,24.69 2.09,0 4.16,-0.17 6.41,-0.63 16.76,-3.52 27.53,-20.06 24.04,-36.82 -44.56,-212.81 -7.79,-417.23 109.31,-607.46 281.2,-456.92 606.17,-377.28 619.86,-373.73z"/>
   <path class="fil0" d="M5840.09 9662.25c8.24,-1.14 15.53,-5.36 20.58,-12.03 5.01,-6.62 7.18,-14.78 6.07,-22.99 -1.14,-8.32 -5.47,-15.67 -12.23,-20.75 -6.65,-5.01 -14.71,-6.95 -22.66,-5.92 -3.96,0.58 -395.17,58.31 -361.01,541.11 12.59,177.91 43.09,315.47 90.63,408.85 5.32,10.49 15.96,16.99 27.73,16.99 4.93,0 9.69,-1.14 14.06,-3.36 7.4,-3.71 12.91,-10.16 15.51,-18.02 2.58,-7.93 1.93,-16.36 -1.86,-23.78 -43.78,-86.01 -72.06,-215.54 -84.05,-385.07 -29.97,-423.79 293.14,-473.16 307.23,-475.03z"/>
   <path class="fil0" d="M3934.97 9707.04c-8.29,0.23 -16.01,3.71 -21.7,9.76 -5.71,6.04 -8.69,13.97 -8.44,22.23 0.37,13.17 10.69,323.16 138.39,433.3 5.67,4.85 12.89,7.53 20.27,7.53 9.06,0 17.64,-3.94 23.56,-10.77 11.15,-13.06 9.7,-32.72 -3.24,-43.9 -105.33,-90.81 -116.76,-385.02 -116.84,-387.98 -0.48,-16.19 -14.56,-29.71 -32,-30.17z"/>
   <path class="fil0" d="M4568.98 10683.97l0.07 0c5.45,4.1 11.93,6.27 18.75,6.27 9.81,0 18.85,-4.5 24.74,-12.26 5.04,-6.67 7.21,-14.81 6.07,-23.08 -1.14,-8.21 -5.41,-15.51 -12,-20.52 -588.93,-447.27 -556.53,-1214.7 -556.13,-1222.39 0.4,-8.32 -2.45,-16.25 -8.01,-22.41 -5.57,-6.15 -13.22,-9.81 -20.95,-10.14 -8.57,-1.09 -16.05,1.59 -22.2,6.88 -6.52,5.6 -10.51,13.8 -10.94,22.53 -0.43,8.04 -36.09,806.59 580.6,1275.12z"/>
   <path class="fil0" d="M4282.84 9032.71l-0.05 -0.05c-14.14,-9.51 -33.53,-5.87 -43.13,8.21 -13.17,19.16 -317.35,479.14 147.54,1246.96 257.01,424.42 589.79,564.14 823.68,606.55 1.85,0.35 3.74,0.51 5.59,0.51 15.01,0 27.87,-10.72 30.55,-25.53 1.49,-8.16 -0.28,-16.43 -5.01,-23.26 -4.74,-6.84 -11.87,-11.4 -20.04,-12.89 -221.3,-40.18 -536.54,-172.95 -781.56,-577.65 -440.7,-727.74 -152.3,-1175.29 -149.38,-1179.69 9.59,-14.13 5.92,-33.46 -8.19,-43.16z"/>
   <path class="fil0" d="M6323.92 10268.73c-1.63,-17.11 -16.23,-29.75 -33.88,-27.93 -17.02,1.59 -29.61,16.76 -28.05,33.81 0.18,2.17 15.62,216.9 -192.11,440.14 -10.26,-21.15 -19.02,-40.64 -26.53,-59.18 273.03,-411.01 109.36,-962.78 107.67,-968.35 -5.03,-16.25 -22.57,-25.6 -38.9,-20.59 -16.33,5.08 -25.56,22.52 -20.55,38.94 1.54,4.9 148.56,490.54 -75.16,875.44 -0.03,-0.05 -0.06,-0.11 -0.06,-0.16 -4.84,-15.39 -9.6,-32.15 -14.6,-49.71l-4.35 -15.17c37.33,-74.57 56.57,-140.24 58.69,-147.59 2.27,-7.97 1.28,-16.41 -2.76,-23.66 -4.02,-7.23 -10.67,-12.48 -18.5,-14.71 -8.04,-2.38 -16.37,-1.47 -23.61,2.58 -7.35,4.04 -12.68,10.71 -14.96,18.8 -0.12,0.34 -9.24,31.87 -27.17,75.7 -1.64,-4.43 -3.33,-8.89 -5.07,-13.27 32.63,-67.68 49.17,-145.88 49.17,-232.59 0,-17.16 -13.94,-31.07 -31.1,-31.07 -17.16,0 -31.09,13.91 -31.09,31.07 0,57.17 -7.99,110.14 -23.74,157.73 -10.05,-16.07 -20.7,-30.03 -32.19,-42.18 13.4,-16.3 21.23,-29.35 21.58,-29.98 8.84,-14.66 4.05,-33.81 -10.64,-42.59 -7.08,-4.27 -15.44,-5.58 -23.48,-3.59 -8.09,2 -14.91,7.08 -19.25,14.26 -3.19,5.34 -9.46,14.41 -17.68,24.22 -23.32,-12.31 -49.03,-19.16 -76.63,-20.3 9.86,-43.32 21.89,-76.1 26.9,-88.87l0.03 -0.1c50.42,-86.1 94.59,-146.18 131.32,-178.73l73.34 0c16.2,32.62 23.83,85.24 25,114.08 0.33,8.44 4.07,16.41 10.29,22.05 6.13,5.53 13.97,8.49 22.06,7.76 17.1,-0.74 30.47,-15.28 29.79,-32.33 -0.75,-18 -6.42,-110.3 -47.21,-163.78 -13.62,-17.44 -29.64,-28.61 -47.58,-33.11 -69.44,-17.28 -146.95,55.35 -252.87,236.85 -4.1,9.63 -99.91,237.95 -8.55,403.51 11.99,21.66 32.93,36.81 57.32,41.55 23.63,4.78 49.97,-1.59 69.23,-17.21 16.84,-13.69 40.67,-35.93 64.42,-67.73 2.83,8.83 5.56,17.67 8.19,26.44 -42.21,78.45 -110.49,169.94 -199.1,169.94 -165.95,0 -219.63,-239.7 -220.14,-242.1 -3.47,-16.6 -19.77,-27.82 -36.78,-23.99 -16.77,3.4 -27.57,19.93 -24.1,36.76 2.52,11.92 63.54,291.46 281.02,291.46 82.09,0 157,-50.55 222.84,-150.31 0.88,2.9 1.76,5.76 2.65,8.54 5.01,15.97 10.71,31.64 16.53,47.26l-1.19 1.72c-4.12,5.76 -8.22,11.52 -12.58,17.16 -74.36,96.22 -167.49,152.03 -276.8,165.93 -243.39,30.61 -493.22,-151.64 -522.14,-173.41 -5.91,-3.59 -592.95,-369.4 -725.96,-989.22 -127.69,-595.15 130.25,-698.46 132.61,-699.37 7.86,-2.61 14.25,-8.14 17.96,-15.55 3.7,-7.48 4.3,-15.9 1.65,-23.83 -5.44,-16.13 -23.12,-24.92 -39.37,-19.56 -12.9,4.34 -314.74,113.73 -173.61,771.41 138.52,645.84 746.41,1024.4 751.31,1027.15 9.86,7.69 243.99,188.12 500.38,188.12 22.01,0 43.84,-1.37 64.82,-4.05 122.41,-15.45 226.76,-75.75 310.37,-179.45 7.2,16.18 14.76,31.98 22.57,47.3 -62.05,57.87 -135.78,111.23 -219.28,158.66 -7.2,4.1 -12.39,10.77 -14.61,18.81 -2.2,8.04 -1.14,16.42 2.99,23.67 8.23,14.41 28.5,19.54 42.35,11.61 82.4,-46.79 156.12,-99.18 219.33,-155.79 57.2,97.25 128.59,183.62 212.3,256.76 5.58,4.95 12.87,7.7 20.47,7.7 9,0 17.56,-3.89 23.45,-10.61 5.47,-6.27 8.15,-14.25 7.61,-22.57 -0.56,-8.27 -4.34,-15.85 -10.58,-21.33 -82.93,-72.51 -152.59,-157.84 -207.15,-253.9 244.78,-248.49 224.46,-494.94 223.45,-505.37zm-505.13 233.5l0 0c-4.98,4.06 -11.53,5.76 -18.07,4.39 -6.32,-1.2 -11.72,-5.07 -14.76,-10.59 -20.15,-36.49 -30.65,-81.42 -31.27,-133.69 12.52,3.2 25.35,3.99 38.14,1.99 18.61,-2.62 37.54,-10.66 56.36,-23.93 17.12,17.56 32.26,40.69 46.03,70.51 -25.98,45.09 -55.73,74.44 -76.43,91.32z"/>
   <path class="fil0" d="M17494.53 9492.72c-12.53,-24.39 -42.36,-34.18 -67.09,-21.67 -746.4,381.9 -1241.28,-251.06 -1357.52,-422.49l33.06 -21.44c291.06,-188.46 565.99,-366.4 585.22,-548.24 6.31,-59.37 -14.66,-113.6 -62.27,-161.22 -85.51,-85.57 -167.57,-88.3 -221.13,-75.45 -165.62,39.38 -299.59,279.34 -377.67,456.03 -38.08,-236.21 -134.93,-517.87 -379.56,-568.06 -92.96,-19.14 -189.33,33.99 -224.46,123.39 -52.74,133.99 -63.33,402.99 404.56,751.86 -878.41,71.53 -1636.12,-491.12 -1644.11,-497.16 -21.92,-16.48 -53.2,-12.26 -69.78,9.73 -16.61,21.99 -12.26,53.2 9.7,69.79 29.65,22.41 614.99,456.97 1371.39,517.05 -38.35,19.64 -74.34,43.29 -106.35,71.75 -133.73,119.04 -176.47,303.71 -183.98,475.75 -3.53,80.63 -0.58,162.08 -0.58,242.79 0,113.83 0,227.64 0,341.45 0,127.43 0,254.85 0,382.28 0,113.36 0,226.72 0,340.09 0,71.61 0,143.23 0,214.85 0,1.72 0,34.73 0,34.73l434.57 0 0 -1045.4 163.32 0 0 -388.89 -163.32 0 0 -124.57c0,0 0,-8.9 -0.24,-8.9 0.05,-0.74 0.19,-1.24 0.24,-1.99l0 -70.77c0,-63.44 51.43,-114.87 114.87,-114.87 41.57,0 77.66,22.31 97.81,55.39 6.84,5.39 13.04,11.23 18.06,17.6l283.88 -223.22c171.99,177.65 451.52,387.27 815.64,387.22 153.62,0 322.36,-37.36 504.06,-130.33 24.47,-12.52 34.2,-42.55 21.68,-67.08zm-1978.73 -1202.69l0 0c15.31,-38.87 53.37,-64.17 93.13,-64.17 6.21,0 12.43,0.66 18.62,1.88 283.91,58.33 319.8,566.94 323.63,744.05 -479.69,-332.82 -479.69,-569.08 -435.38,-681.76zm533.43 625.25l0 0c49.03,-148.05 211.36,-536.36 378.67,-576.14 42.46,-10.13 84.47,5.84 127.58,48.98 34.15,34.12 35.54,62.15 33.64,80.24 -14.22,134.28 -304.7,322.53 -538.81,474.12 -0.28,-8.6 -0.65,-17.69 -1.08,-27.2z"/>
   <path class="fil0" d="M9731.32 10539.56l411.45 0 0 -405.5 -340.39 0c-39.25,0 -71.06,-31.81 -71.06,-71.04l0 -19.84c0,-39.23 31.81,-71.04 71.06,-71.04l303.01 0 0 -322.91 -303.01 0c-39.25,0 -71.06,-31.81 -71.06,-71.06 0,-39.23 31.81,-71.05 71.06,-71.05l340.39 0 0 -434.56 -411.45 0c-240.01,0 -434.57,194.56 -434.57,434.56l0 597.88c0,240 194.56,434.56 434.57,434.56z"/>
   <path class="fil0" d="M10832.47 10539.56l140.68 0 0 -405.5 -36.88 0c-75.41,0 -136.53,-61.13 -136.53,-136.52l0 -924.98 -434.56 0 0 999.71c0,258.09 209.22,467.29 467.29,467.29z"/>
   <path class="fil0" d="M7509.06 10064.86c0,52.75 -42.76,95.49 -95.49,95.49 -52.74,0 -95.49,-42.74 -95.49,-95.49l0 -992.3 -434.57 0 0 1013.76c0,274.78 222.75,497.54 497.53,497.54l65.04 0c274.79,0 497.54,-222.76 497.54,-497.54l0 -1013.76 -434.56 0 0 992.3z"/>
   <path class="fil0" d="M13223.71 10556.21c416.43,0 755.2,-338.85 755.2,-755.28 0,-416.43 -338.77,-755.2 -755.2,-755.2 -416.42,0 -755.19,338.77 -755.19,755.2 0,416.43 338.77,755.28 755.19,755.28zm0 -1078.66l0 0c178.31,0 323.4,145.05 323.4,323.38 0,178.35 -145.09,323.46 -323.4,323.46 -178.29,0 -323.39,-145.11 -323.39,-323.46 0,-178.33 145.1,-323.38 323.39,-323.38z"/>
   <path class="fil0" d="M14588.09 9568.01c0,-63.44 51.43,-114.87 114.87,-114.87 41.57,0 77.65,22.31 97.83,55.39 6.83,5.39 13.03,11.23 18.05,17.6l339.41 -266.89c-95.29,-121.19 -242.97,-199.03 -405.17,-213.44 -154.55,-13.68 -306.1,33.94 -415,130.79 -133.74,119.04 -176.46,303.71 -183.99,475.75 -3.52,80.63 -0.56,162.08 -0.56,242.79 0,113.83 0,227.64 0,341.45 0,127.43 0,254.85 0,382.28 0,49.22 0,98.43 0,147.66l-1387.21 0c-160.23,0 -367.13,33.51 -578.04,80.29l0 -669.85c0,-160.55 -87.31,-300.41 -216.8,-375.65l426.12 -724.6 -434.58 0 -376.4 640.06c-7.06,12.03 -25.48,7.02 -25.48,-6.93l0 -637.28 -434.56 0 0 1467 434.56 0 0 -339.55c0,-40.87 33.14,-73.99 74.01,-73.99 65.48,0 118.55,53.06 118.55,118.54l0 713.23c-301.85,85.71 -542.37,169.51 -564.79,177.4 -373.35,139.94 -919.09,306.74 -1399.06,306.74 -599.98,0 -965.39,-231.33 -1124.69,-362.53l530.96 -2006.84 -1062.64 0 0 434.56 481.48 0 -456.82 1673.73 83.46 89.68c20.69,24.66 518.38,603.19 1548.25,603.19 544.65,0 1143.86,-181.77 1546.26,-332.61 271.99,-95.36 1059.2,-342.79 1430.21,-342.79l1387.21 0c0,5.53 0,10.21 0,10.21l434.56 0 0 -1045.4 553.6 0 0 -388.91 -553.6 0 0 -124.55c0,0 0,-8.9 -0.23,-8.9 0.05,-0.74 0.18,-1.24 0.23,-1.99l0 -70.77z"/>
  </g>
 </g>
</svg>
